<svg height="512" viewBox="0 0 128 128" width="512" xmlns="http://www.w3.org/2000/svg"><g id="number"><text fill="#24253a" font-family="MyriadPro-Regular, Myriad Pro" font-size="40" letter-spacing=".002em" transform="translate(53.681 -510.265)">1<tspan x="-10.3" y="228">11</tspan><tspan x="-10.3" y="456">21</tspan><tspan x="-10.3" y="684">31</tspan><tspan x="-10.3" y="912">41</tspan><tspan x="-10.3" y="1140">51</tspan><tspan x="-10.3" y="1368">61</tspan><tspan x="-10.3" y="1596">71</tspan><tspan x="-10.3" y="1824">81</tspan><tspan x="-10.3" y="2052">91</tspan><tspan x="-20.599" y="2280">101</tspan><tspan x="-20.599" y="2508">111</tspan><tspan x="-20.599" y="2736">121</tspan><tspan x="-20.599" y="2964">131</tspan><tspan x="-20.599" y="3192">141</tspan><tspan x="-20.599" y="3420">151</tspan><tspan x="-20.599" y="3648">161</tspan><tspan x="-20.599" y="3876">171</tspan><tspan x="-20.599" y="4104">181</tspan><tspan x="-20.599" y="4332">191</tspan><tspan x="-20.599" y="4560">201</tspan><tspan x="-20.599" y="4788">211</tspan><tspan x="-20.599" y="5016">221</tspan><tspan x="-20.599" y="5244">231</tspan><tspan x="-20.599" y="5472">241</tspan></text></g><g id="Circle_Grid" data-name="Circle Grid"><circle cx="64" cy="64" fill="#ea8953" r="64"/></g><g id="icon"><path d="m64 23a41 41 0 1 0 41 41 41 41 0 0 0 -41-41zm0 50.189a9.189 9.189 0 1 1 9.189-9.189 9.2 9.2 0 0 1 -9.189 9.189z" fill="#eeefee"/><g fill="#dbd8dd"><path d="m64 98a34.038 34.038 0 0 1 -34-34h2a32.036 32.036 0 0 0 32 32zm0-9.67a24.357 24.357 0 0 1 -24.33-24.33h2a22.356 22.356 0 0 0 22.33 22.33zm34-24.33h-2a32.036 32.036 0 0 0 -32-32v-2a34.038 34.038 0 0 1 34 34zm-9.67 0h-2a22.356 22.356 0 0 0 -22.33-22.33v-2a24.358 24.358 0 0 1 24.33 24.33z"/><path d="m64 51a13 13 0 1 0 13 13 13.013 13.013 0 0 0 -13-13zm0 20a7 7 0 1 1 7-7 7.008 7.008 0 0 1 -7 7z"/></g></g></svg>