<?xml version="1.0" encoding="iso-8859-1"?>
<!-- Generator: Adobe Illustrator 19.0.0, SVG Export Plug-In . SVG Version: 6.00 Build 0)  -->
<svg version="1.1" id="Layer_1" xmlns="http://www.w3.org/2000/svg" xmlns:xlink="http://www.w3.org/1999/xlink" x="0px" y="0px"
	 viewBox="0 0 473.654 473.654" style="enable-background:new 0 0 473.654 473.654;" xml:space="preserve">
<circle style="fill:#5B4F3F;" cx="236.827" cy="236.827" r="236.827"/>
<path style="fill:#76C271;" d="M333.806,396.657c0,10.83-8.788,19.618-19.625,19.618H168.655c-10.837,0-19.625-8.788-19.625-19.618
	V261.355c0-10.837,8.788-19.625,19.625-19.625h145.522c10.837,0,19.625,8.788,19.625,19.625v135.302H333.806z"/>
<path style="fill:#67BD61;" d="M327.624,392.128c0,10.116-8.193,18.316-18.309,18.316H173.52c-10.116,0-18.309-8.201-18.309-18.316
	V362.08c0-10.116,17.09-28.499,64.141-22.393c51.03,6.63,89.963-4.66,89.963-4.66c10.116,0,18.309,8.193,18.309,18.309
	L327.624,392.128L327.624,392.128z"/>
<g>
	<path style="fill:#76C271;" d="M270.801,261.823c0,5.557-4.345,10.056-9.7,10.056h-39.995c-5.348,0-9.693-4.499-9.693-10.056
		v-93.863c0-5.557,4.345-10.052,9.693-10.052h39.995c5.355,0,9.7,4.495,9.7,10.052V261.823z"/>
	<path style="fill:#76C271;" d="M241.109,138.951c-33.757,0-47.145,2.483-47.145,10.938c0,0.239,0.101,0.486,0.138,0.729
		c1.526,8.1,14.229,23.32,47.006,23.32s45.488-15.22,47.014-23.32c0.037-0.243,0.138-0.49,0.138-0.729
		C288.265,141.434,274.877,138.951,241.109,138.951z"/>
</g>
<path style="fill:#5DBB63;" d="M241.109,153.528c25.336,0,35.38-1.855,35.38-8.19c0-1.915-9.48-4.372-33.641-4.372
	c-24.154,0-37.112,1.361-37.112,4.372C205.736,151.67,215.781,153.528,241.109,153.528z"/>
<path style="fill:#A6D4A0;" d="M169.904,319.206c-8.362-9.816-5.909-47.096,3.908-55.458c9.824-8.369,45.036-7.072,53.39,2.76
	C235.574,276.325,178.269,329.03,169.904,319.206z"/>
<circle style="fill:#CBE9E6;" cx="242.848" cy="104.334" r="22.86"/>
<path style="fill:#DFF1EF;" d="M224.898,107.15c-3.646-4.271,1.571-14.88,5.845-18.515c4.282-3.639,14.162-6.63,17.8-2.36
	C252.182,90.546,228.533,111.436,224.898,107.15z"/>
<circle style="fill:#CBE9E6;" cx="226.543" cy="54.037" r="16.334"/>
<path style="fill:#DFF1EF;" d="M213.72,56.045c-2.606-3.048,1.126-10.635,4.17-13.227c3.059-2.599,10.116-4.742,12.707-1.675
	C233.207,44.179,216.316,59.1,213.72,56.045z"/>
<circle style="fill:#CBE9E6;" cx="274.634" cy="66.071" r="17.636"/>
<path style="fill:#DFF1EF;" d="M260.802,68.243c-2.82-3.298,1.204-11.484,4.506-14.285c3.302-2.816,10.927-5.112,13.724-1.825
	C281.844,55.432,263.599,71.542,260.802,68.243z"/>
<g>
	<path style="fill:#FFFFFF;" d="M217.277,181.597c-1.993,0-3.654-0.916-3.747-2.094c-0.101-1.204,1.511-2.229,3.564-2.274
		c2.775-0.079,27.052-0.737,28.959-0.737c2.068,0,3.755,0.98,3.755,2.188c0,1.208-1.687,2.191-3.755,2.191
		c-1.324,0-17.83,0.426-28.6,0.718C217.404,181.597,217.337,181.597,217.277,181.597z"/>
	<path style="fill:#FFFFFF;" d="M217.277,194.712c-1.993,0-3.654-0.905-3.747-2.087c-0.101-1.204,1.511-2.229,3.564-2.285
		c2.775-0.071,27.052-0.722,28.959-0.722c2.068,0,3.755,0.969,3.755,2.184c0,1.208-1.687,2.18-3.755,2.18
		c-1.324,0-17.83,0.438-28.6,0.729C217.404,194.712,217.337,194.712,217.277,194.712z"/>
	<path style="fill:#FFFFFF;" d="M217.277,207.834c-1.993,0-3.654-0.916-3.747-2.087c-0.101-1.204,1.511-2.229,3.564-2.281
		c2.775-0.075,27.052-0.729,28.959-0.729c2.068,0,3.755,0.972,3.755,2.18c0,1.204-1.687,2.188-3.755,2.188
		c-1.324,0-17.83,0.438-28.6,0.729C217.404,207.834,217.337,207.834,217.277,207.834z"/>
	<path style="fill:#FFFFFF;" d="M217.277,220.956c-1.993,0-3.654-0.916-3.747-2.087c-0.101-1.204,1.511-2.229,3.564-2.285
		c2.775-0.079,27.052-0.737,28.959-0.737c2.068,0,3.755,0.984,3.755,2.191c0,1.204-1.687,2.188-3.755,2.188
		c-1.324,0-17.83,0.438-28.6,0.729C217.404,220.956,217.337,220.956,217.277,220.956z"/>
	<path style="fill:#FFFFFF;" d="M217.277,234.079c-1.993,0-3.654-0.92-3.747-2.09c-0.101-1.204,1.511-2.229,3.564-2.285
		c2.775-0.075,27.052-0.737,28.959-0.737c2.068,0,3.755,0.984,3.755,2.188s-1.687,2.191-3.755,2.191
		c-1.324,0-17.83,0.438-28.6,0.722C217.404,234.079,217.337,234.079,217.277,234.079z"/>
</g>
<g>
</g>
<g>
</g>
<g>
</g>
<g>
</g>
<g>
</g>
<g>
</g>
<g>
</g>
<g>
</g>
<g>
</g>
<g>
</g>
<g>
</g>
<g>
</g>
<g>
</g>
<g>
</g>
<g>
</g>
</svg>
