<?xml version="1.0" encoding="iso-8859-1"?>
<!-- Generator: Adobe Illustrator 19.0.0, SVG Export Plug-In . SVG Version: 6.00 Build 0)  -->
<svg version="1.1" id="Layer_1" xmlns="http://www.w3.org/2000/svg" xmlns:xlink="http://www.w3.org/1999/xlink" x="0px" y="0px"
	 viewBox="0 0 475.554 475.554" style="enable-background:new 0 0 475.554 475.554;" xml:space="preserve">
<circle style="fill:#A2D4DE;" cx="237.777" cy="237.777" r="237.777"/>
<path style="fill:#FFFFFF;" d="M328.758,185.934c0-43.797-35.507-79.304-79.308-79.304c-28.306,0-53.127,14.842-67.166,37.152
	c-8.801-4.457-18.743-6.984-29.282-6.984c-32.368,0-59.187,23.688-64.098,54.667c-4.423-1.487-9.146-2.328-14.065-2.328
	c-24.36,0-44.116,19.749-44.116,44.116c0,23.342,18.15,42.4,41.101,43.959c2.594,0.845,5.362,1.299,8.226,1.299h220.405
	c15.12,0,27.382-12.642,27.382-28.227v-52.256C328.443,194.081,328.758,190.049,328.758,185.934z"/>
<path style="fill:#A2D4DE;" d="M404.811,253.648c-4.246,0-8.316,0.725-12.127,2.016c-4.239-26.729-27.375-47.161-55.294-47.161
	c-9.086,0-17.665,2.178-25.257,6.026c-12.101-19.246-33.521-32.042-57.933-32.042c-31.369,0-57.749,21.146-65.814,49.94
	c-23.064,4.393-40.508,24.634-40.508,48.971c0,27.551,22.336,49.895,49.887,49.895c3.064,0,6.056-0.315,8.977-0.845
	c1.138,0.169,2.279,0.285,3.462,0.285h190.113c2.47,0,4.855-0.394,7.1-1.13c19.79-1.333,35.447-17.774,35.447-37.914
	C442.863,270.682,425.825,253.648,404.811,253.648z"/>
<path style="fill:#FFFFFF;" d="M402.948,262.448c-4.123,0-8.072,0.706-11.771,1.952c-4.115-25.933-26.56-45.761-53.649-45.761
	c-8.816,0-17.136,2.118-24.506,5.85c-11.741-18.671-32.522-31.088-56.21-31.088c-30.438,0-56.033,20.519-63.865,48.457
	c-22.381,4.261-39.307,23.905-39.307,47.518c0,26.729,21.675,48.415,48.408,48.415c2.977,0,5.88-0.308,8.711-0.822
	c1.1,0.161,2.215,0.27,3.36,0.27h184.466c2.399,0,4.716-0.375,6.886-1.085c19.205-1.299,34.399-17.249,34.399-36.791
	C439.871,278.976,423.339,262.448,402.948,262.448z"/>
<g>
</g>
<g>
</g>
<g>
</g>
<g>
</g>
<g>
</g>
<g>
</g>
<g>
</g>
<g>
</g>
<g>
</g>
<g>
</g>
<g>
</g>
<g>
</g>
<g>
</g>
<g>
</g>
<g>
</g>
</svg>
