<?xml version="1.0" encoding="iso-8859-1"?>
<!-- Generator: Adobe Illustrator 19.0.0, SVG Export Plug-In . SVG Version: 6.00 Build 0)  -->
<svg version="1.1" id="Layer_1" xmlns="http://www.w3.org/2000/svg" xmlns:xlink="http://www.w3.org/1999/xlink" x="0px" y="0px"
	 viewBox="0 0 473.658 473.658" style="enable-background:new 0 0 473.658 473.658;" xml:space="preserve">
<circle style="fill:#EDC92C;" cx="236.829" cy="236.829" r="236.829"/>
<g>
	<path style="fill:#BB813C;" d="M359.23,307.163c0,66.4-53.832,85.113-120.236,85.113s-120.236-18.713-120.236-85.113
		c0-66.408,53.832-155.362,120.236-155.362S359.23,240.756,359.23,307.163z"/>
	<polygon style="fill:#BB813C;" points="236.305,147.55 239.652,147.55 255.916,147.55 294.643,99.133 294.643,80.596 
		267.868,80.596 267.868,70.076 239.652,70.076 236.305,70.076 208.09,70.076 208.09,80.596 181.315,80.596 181.315,99.133 
		220.049,147.55 	"/>
</g>
<g>
	<polygon style="fill:#A06D35;" points="267.868,80.596 242.663,142.714 283.402,80.689 	"/>
	<polygon style="fill:#A06D35;" points="208.296,80.596 233.501,142.714 192.761,80.689 	"/>
	<polygon style="fill:#A06D35;" points="220.349,178.73 236.649,161.771 210.311,178.701 	"/>
	<polygon style="fill:#A06D35;" points="258.863,178.73 242.566,161.771 268.904,178.701 	"/>
</g>
<path style="fill:#8D602F;" d="M261.884,152.393c0,2.872-2.33,5.202-5.209,5.202h-36.053c-2.88,0-5.209-2.33-5.209-5.202l0,0
	c0-2.872,2.33-5.209,5.209-5.209h36.053C259.555,147.183,261.884,149.52,261.884,152.393L261.884,152.393z"/>
<polygon style="fill:#A06D35;" points="234.107,70.626 242.663,70.626 237.82,140.201 "/>
<path style="fill:#8D602F;" d="M203.883,300.567c-6.903,0-9.884-3.358-9.884-7.831v-2.053c0-4.286,2.98-7.831,9.884-7.831h18.085
	c0.191,0-29.09-44.943-29.09-44.943c-0.927-1.488,2.797-11.372,15.856-11.372c5.587,0,9.884,2.797,13.044,9.51l20.699,38.967
	l21.263-38.967c3.725-7.087,8.014-9.701,13.425-9.701c11.181,0,15.287,10.254,14.543,11.563l-29.09,44.943h17.901
	c7.087,0,10.071,3.541,10.071,7.831v2.053c0,4.469-2.988,7.831-10.071,7.831h-25.915v9.884h25.915
	c7.087,0,10.071,3.358,10.071,7.831v2.053c0,4.286-2.988,7.831-10.071,7.831h-25.915v8.575c0,8.392-3.171,12.688-10.998,12.688
	H240.8c-7.64,0-10.628-4.293-10.628-12.688v-8.575h-26.289c-6.903,0-9.884-3.541-9.884-7.831v-2.057c0-4.469,2.98-7.831,9.884-7.831
	h26.286v-9.884h-26.286V300.567z"/>
<g>
</g>
<g>
</g>
<g>
</g>
<g>
</g>
<g>
</g>
<g>
</g>
<g>
</g>
<g>
</g>
<g>
</g>
<g>
</g>
<g>
</g>
<g>
</g>
<g>
</g>
<g>
</g>
<g>
</g>
</svg>
