<?xml version="1.0" encoding="iso-8859-1"?>
<!-- Generator: Adobe Illustrator 19.0.0, SVG Export Plug-In . SVG Version: 6.00 Build 0)  -->
<svg version="1.1" id="Layer_1" xmlns="http://www.w3.org/2000/svg" xmlns:xlink="http://www.w3.org/1999/xlink" x="0px" y="0px"
	 viewBox="0 0 473.654 473.654" style="enable-background:new 0 0 473.654 473.654;" xml:space="preserve">
<circle style="fill:#344E5D;" cx="236.827" cy="236.827" r="236.827"/>
<g>
	<path style="fill:#8F8376;" d="M238.828,79.788c-5.654,0-10.231,4.577-10.231,10.224v329.161c0,5.65,4.581,10.228,10.231,10.228
		c5.647,0,10.224-4.581,10.224-10.228V90.012C249.052,84.361,244.475,79.788,238.828,79.788z"/>
	<path style="fill:#8F8376;" d="M234.711,350.432c-3.878,3.874-3.878,10.172,0,14.05l54.699,54.699
		c3.87,3.874,10.168,3.882,14.046,0c3.885-3.882,3.885-10.175,0-14.061l-54.695-54.691
		C244.882,346.546,238.589,346.546,234.711,350.432z"/>
	<path style="fill:#8F8376;" d="M242.788,350.432c-3.878-3.882-10.168-3.882-14.053,0l-54.691,54.695
		c-3.878,3.874-3.885,10.172,0,14.053c3.878,3.882,10.168,3.882,14.053,0l54.691-54.695
		C246.674,360.603,246.674,354.306,242.788,350.432z"/>
</g>
<path style="fill:#597C7C;" d="M407.161,308.773c0,10.845-8.795,19.637-19.633,19.637H97.827c-10.852,0-19.648-8.792-19.648-19.637
	V114.82c0-10.849,8.795-19.64,19.648-19.64h289.701c10.837,0,19.633,8.792,19.633,19.64V308.773z"/>
<path style="fill:#FFFFFF;" d="M392.15,296.728c0,9.858-7.991,17.845-17.849,17.845H111.047c-9.861,0-17.849-7.991-17.849-17.845
	V126.865c0-9.854,7.991-17.842,17.849-17.842h263.251c9.861,0,17.849,7.991,17.849,17.842v169.863H392.15z"/>
<g>
	<path style="fill:#78A4A4;" d="M359.889,174.111c0,4.11-3.332,7.442-7.442,7.442h-64.485c-4.114,0-7.442-3.336-7.442-7.442
		c0-4.114,3.332-7.442,7.442-7.442h64.485C356.561,166.669,359.889,170.001,359.889,174.111"/>
	<path style="fill:#78A4A4;" d="M359.889,205.347c0,4.11-3.332,7.438-7.442,7.438h-64.485c-4.114,0-7.442-3.332-7.442-7.438
		c0-4.117,3.332-7.445,7.442-7.445h64.485C356.561,197.902,359.889,201.23,359.889,205.347"/>
	<path style="fill:#78A4A4;" d="M359.889,238.345c0,4.11-3.332,7.438-7.442,7.438h-64.485c-4.114,0-7.442-3.332-7.442-7.438
		c0-4.117,3.332-7.442,7.442-7.442h64.485C356.561,230.904,359.889,234.232,359.889,238.345"/>
</g>
<g>
	<path style="fill:#78A4A4;" d="M122.938,190.075c0-0.374,0.037-0.744,0.067-1.111c-0.116,0.617-0.183,1.253-0.168,1.922
		c0.045,1.724,0.101,22.83,0.101,24.416c0,16.944,29.243,30.683,65.334,30.683v-25.227
		C152.182,220.758,122.938,207.019,122.938,190.075z"/>
	<rect x="187.689" y="190.019" style="fill:#78A4A4;" width="66.056" height="24.603"/>
</g>
<path style="fill:#DDD374;" d="M260.069,221.779c0-1.593,0.067-22.695,0.123-24.431c0.007-0.273-0.022-0.535-0.037-0.793h-0.086
	c0,16.944-29.243,30.687-65.327,30.687v25.22C230.821,252.462,260.069,238.727,260.069,221.779z"/>
<path style="fill:#EFE87F;" d="M194.742,227.239c36.079,0,65.327-13.743,65.327-30.687h-65.327V227.239z"/>
<path style="fill:#ABC7C8;" d="M253.517,188.718c-1.511-16.316-30.145-29.326-65.244-29.326c-35.287,0-64.018,13.145-65.267,29.573
	c-0.03,0.366-0.067,0.737-0.067,1.111c0,16.944,29.243,30.683,65.334,30.683v-30.679h65.327v-0.004
	C253.595,189.623,253.562,189.17,253.517,188.718z"/>
<g>
</g>
<g>
</g>
<g>
</g>
<g>
</g>
<g>
</g>
<g>
</g>
<g>
</g>
<g>
</g>
<g>
</g>
<g>
</g>
<g>
</g>
<g>
</g>
<g>
</g>
<g>
</g>
<g>
</g>
</svg>
