<?xml version="1.0" encoding="iso-8859-1"?>
<!-- Generator: Adobe Illustrator 19.0.0, SVG Export Plug-In . SVG Version: 6.00 Build 0)  -->
<svg version="1.1" id="Layer_1" xmlns="http://www.w3.org/2000/svg" xmlns:xlink="http://www.w3.org/1999/xlink" x="0px" y="0px"
	 viewBox="0 0 473.654 473.654" style="enable-background:new 0 0 473.654 473.654;" xml:space="preserve">
<circle style="fill:#344E5D;" cx="236.827" cy="236.827" r="236.827"/>
<polygon style="fill:#67B8CB;" points="331.595,123.047 241.569,400.262 420.762,187.02 "/>
<g>
	<polygon style="fill:#A3DBE4;" points="241.569,400.262 420.762,187.02 364.478,198.381 	"/>
	<polygon style="fill:#A3DBE4;" points="151.905,124.558 241.569,400.262 62.088,188.082 	"/>
</g>
<polygon style="fill:#8CD1DC;" points="120.863,199.39 241.569,400.262 62.088,188.082 "/>
<polygon style="fill:#AFDAE2;" points="129.344,132.744 62.814,188.31 243.005,223.208 420.695,186.971 353.098,132.291 "/>
<linearGradient id="SVGID_1_" gradientUnits="userSpaceOnUse" x1="-0.4378" y1="541.105" x2="29.5462" y2="571.083" gradientTransform="matrix(3.7396 0 0 -3.7396 186.8021 2212.0176)">
	<stop  offset="0" style="stop-color:#86C6D4"/>
	<stop  offset="1" style="stop-color:#A7DEF3"/>
</linearGradient>
<path style="fill:url(#SVGID_1_);" d="M353.113,132.243c0,0-30.638-15.628-59.272-26.876c0,0-27.534,0-50.836,0
	c-22.078,0-47.313,0-47.313,0c-31.106,10.706-66.348,27.318-66.348,27.318s113.664,22.071,113.664,22.015
	S353.113,132.243,353.113,132.243z"/>
<g>
	<polygon style="fill:#9FCFDB;" points="386.623,194.357 386.358,193.972 386.234,194.002 	"/>
	<polygon style="fill:#9FCFDB;" points="102.741,197.042 103.582,196.208 103.253,196.141 	"/>
</g>
<polygon style="fill:#AADDE2;" points="241.707,223.208 241.707,400.262 179.724,210.796 "/>
<polygon style="fill:#90D3D3;" points="241.707,223.208 241.707,400.262 303.074,211.136 "/>
<polygon style="fill:#86C6D4;" points="120.863,199.39 129.344,132.744 62.814,188.31 "/>
<polygon style="fill:#67B8CB;" points="184.956,143.349 120.863,199.39 129.344,132.744 "/>
<polygon style="fill:#AADDE2;" points="179.586,210.796 184.956,143.349 120.863,199.39 "/>
<polygon style="fill:#A3DBE4;" points="243.005,154.759 184.956,143.349 179.586,210.796 "/>
<polygon style="fill:#67B8CB;" points="353.113,132.302 420.695,186.971 364.478,198.381 "/>
<polygon style="fill:#86C6D4;" points="299.043,143.016 353.113,132.302 364.478,198.381 "/>
<polygon style="fill:#90D3D3;" points="303.074,211.136 364.478,198.381 299.043,143.016 "/>
<polygon style="fill:#A3DBE4;" points="243.005,154.759 299.043,143.016 303.074,211.136 "/>
<polygon style="fill:#67B8CB;" points="241.707,223.208 303.074,211.136 243.005,154.759 "/>
<polygon style="fill:#90D3D3;" points="179.586,210.796 241.707,223.208 243.005,154.759 "/>
<g>
</g>
<g>
</g>
<g>
</g>
<g>
</g>
<g>
</g>
<g>
</g>
<g>
</g>
<g>
</g>
<g>
</g>
<g>
</g>
<g>
</g>
<g>
</g>
<g>
</g>
<g>
</g>
<g>
</g>
</svg>
