<?xml version="1.0" encoding="iso-8859-1"?>
<!-- Generator: Adobe Illustrator 19.0.0, SVG Export Plug-In . SVG Version: 6.00 Build 0)  -->
<svg version="1.1" id="Layer_1" xmlns="http://www.w3.org/2000/svg" xmlns:xlink="http://www.w3.org/1999/xlink" x="0px" y="0px"
	 viewBox="0 0 473.654 473.654" style="enable-background:new 0 0 473.654 473.654;" xml:space="preserve">
<circle style="fill:#D62127;" cx="236.827" cy="236.827" r="236.827"/>
<path style="fill:#7FCDCC;" d="M333.697,375.898c0,23.694-17.486,42.897-39.049,42.897H188.074
	c-21.57,0-39.052-19.203-39.052-42.897c0,0,8.949-92.936,16.271-116.162c7.326-23.226,17.486-42.897,39.056-42.897h77.286
	c21.566,0,33.357,14.3,39.045,42.897C326.375,288.332,333.697,375.898,333.697,375.898z"/>
<polygon style="fill:#FFFFFF;" points="216.903,383.415 235.612,235.436 240.731,228.877 243.495,228.731 250.148,235.436 
	268.857,383.415 241.887,406.29 "/>
<g>
	<polygon style="fill:#8DD3D5;" points="230.459,276.179 252.967,257.754 251.98,249.946 231.678,266.561 	"/>
	<polygon style="fill:#8DD3D5;" points="227.022,303.38 255.764,279.847 254.773,272.039 228.241,293.762 	"/>
	<polygon style="fill:#8DD3D5;" points="223.582,330.563 258.558,301.941 257.571,294.125 224.801,320.953 	"/>
	<polygon style="fill:#8DD3D5;" points="220.145,357.765 261.355,324.027 260.364,316.226 221.36,348.147 	"/>
	<polygon style="fill:#8DD3D5;" points="216.903,383.415 217.89,383.987 264.141,346.135 263.158,338.323 217.92,375.337 	"/>
	<polygon style="fill:#8DD3D5;" points="231.816,397.102 266.946,368.225 265.951,360.416 226.697,392.479 	"/>
</g>
<ellipse style="fill:#6FC5BC;" cx="242.586" cy="231.816" rx="12.12" ry="12.281"/>
<circle style="fill:#E9C29C;" cx="240.417" cy="127.781" r="78.718"/>
<path style="fill:#A46434;" d="M319.102,127.778l-53.663-48.289c0,0-11.428,18.926-41.906,32.71
	c-29.386,13.287-61.838,15.579-61.838,15.579c0-43.465,35.231-78.699,78.703-78.699C283.867,49.078,319.102,84.312,319.102,127.778z
	"/>
<g>
	<ellipse style="fill:#343433;" cx="216.82" cy="139.486" rx="10.781" ry="11.391"/>
	<ellipse style="fill:#343433;" cx="263.528" cy="139.486" rx="10.781" ry="11.391"/>
</g>
<g>
	<ellipse style="fill:#FFFFFF;" cx="266.893" cy="135.148" rx="4.308" ry="4.555"/>
	<ellipse style="fill:#FFFFFF;" cx="220.063" cy="135.148" rx="4.312" ry="4.555"/>
</g>
<g>
</g>
<g>
</g>
<g>
</g>
<g>
</g>
<g>
</g>
<g>
</g>
<g>
</g>
<g>
</g>
<g>
</g>
<g>
</g>
<g>
</g>
<g>
</g>
<g>
</g>
<g>
</g>
<g>
</g>
</svg>
