<?xml version="1.0" encoding="iso-8859-1"?>
<!-- Generator: Adobe Illustrator 19.0.0, SVG Export Plug-In . SVG Version: 6.00 Build 0)  -->
<svg version="1.1" id="Layer_1" xmlns="http://www.w3.org/2000/svg" xmlns:xlink="http://www.w3.org/1999/xlink" x="0px" y="0px"
	 viewBox="0 0 473.654 473.654" style="enable-background:new 0 0 473.654 473.654;" xml:space="preserve">
<circle style="fill:#EDC92C;" cx="236.827" cy="236.827" r="236.827"/>
<linearGradient id="SVGID_1_" gradientUnits="userSpaceOnUse" x1="-2.4368" y1="504.6303" x2="19.7332" y2="504.6303" gradientTransform="matrix(3.7396 0 0 -3.7396 186.8021 2212.0176)">
	<stop  offset="0" style="stop-color:#959397"/>
	<stop  offset="0.234" style="stop-color:#A6A4AA"/>
	<stop  offset="0.731" style="stop-color:#C4C2CC"/>
	<stop  offset="1" style="stop-color:#D0CED9"/>
</linearGradient>
<path style="fill:url(#SVGID_1_);" d="M260.592,350.671c0,2.55-2.079,1.967-4.633,1.967h-73.632c-2.565,0-4.637,0.58-4.637-1.967
	v-3.16l10.83-16.282l-0.202-29.464c0-2.558,2.072-4.63,4.633-4.63h52.384c2.558,0,4.637,2.075,4.637,4.63l-0.187,29.554
	l10.811,16.189v3.164H260.592z"/>
<linearGradient id="SVGID_2_" gradientUnits="userSpaceOnUse" x1="8.6477" y1="512.767" x2="8.6477" y2="498.0437" gradientTransform="matrix(3.7396 0 0 -3.7396 186.8021 2212.0176)">
	<stop  offset="0.115" style="stop-color:#959397"/>
	<stop  offset="0.142" style="stop-color:#99989B"/>
	<stop  offset="0.372" style="stop-color:#BABAB7"/>
	<stop  offset="0.497" style="stop-color:#C6C7C2"/>
	<stop  offset="0.624" style="stop-color:#78767C"/>
	<stop  offset="1" style="stop-color:#97969E"/>
</linearGradient>
<path style="fill:url(#SVGID_2_);" d="M260.592,347.515c0,2.558-2.079,1.974-4.633,1.974h-73.632c-2.565,0-4.637,0.58-4.637-1.974
	l10.83-18.937l-0.202-29.46c0-2.565,2.072-4.63,4.633-4.63h52.384c2.558,0,4.637,2.068,4.637,4.63l-0.187,29.554L260.592,347.515z"
	/>
<linearGradient id="SVGID_3_" gradientUnits="userSpaceOnUse" x1="-30.3698" y1="536.6625" x2="47.6652" y2="536.6625" gradientTransform="matrix(3.7396 0 0 -3.7396 186.8021 2212.0176)">
	<stop  offset="0" style="stop-color:#959397"/>
	<stop  offset="0.234" style="stop-color:#A6A4AA"/>
	<stop  offset="0.731" style="stop-color:#C4C2CC"/>
	<stop  offset="1" style="stop-color:#D0CED9"/>
</linearGradient>
<path style="fill:url(#SVGID_3_);" d="M365.05,291.148c0,9.622-7.801,17.419-17.419,17.419H90.651
	c-9.622,0-17.419-7.797-17.419-17.419V119.109c0-9.618,7.797-17.419,17.419-17.419h256.98c9.618,0,17.419,7.801,17.419,17.419
	V291.148z"/>
<g>
	<path style="fill:#08090B;" d="M224.094,278.108c0.273,1.481-0.434,2.696-1.197,3.508c-0.662,0.711-1.541,1.271-2.767,1.2
		c-0.239-2.58,1.814-4.383,3.934-4.712C224.079,278.108,224.083,278.108,224.094,278.108z"/>
	<path style="fill:#08090B;" d="M227.856,285.019c-1.346,0.961-2.315,2.225-2.161,4.36c0.127,1.821,1.316,3.059,2.726,3.717
		c-0.329,0.961-0.714,1.806-1.197,2.58c-0.632,1.006-1.537,2.483-2.879,2.767c-1.533,0.314-2.494-0.871-4.173-0.748
		c-1.279,0.097-2.427,1.152-3.721,0.714c-0.621-0.217-1.279-0.883-1.698-1.384c-1.309-1.567-2.528-4.001-2.838-6.342
		c-0.266-2.012,0.004-3.758,0.815-5.097c0.849-1.391,2.431-2.726,4.532-2.483c0.527,0.06,1.051,0.243,1.526,0.426
		c0.408,0.157,0.95,0.467,1.455,0.467c0.479-0.007,1.084-0.337,1.556-0.505c0.546-0.198,1.118-0.408,1.705-0.456
		C225.635,282.843,226.932,283.893,227.856,285.019z"/>
</g>
<g>
	<g>
		<path style="fill:#08090B;" d="M365.05,119.109c0-9.618-7.801-17.419-17.419-17.419h-44.325l-8.182,11.709h56.864v145.066H193.744
			l-8.208,11.75H365.05V119.109z"/>
		<g>
			<path style="fill:#08090B;" d="M85.756,258.464V113.399h209.367l8.182-11.709H90.651c-9.622,0-17.419,7.801-17.419,17.419V270.21
				h112.303l8.208-11.75H85.756V258.464z"/>
			<polygon style="fill:#676767;" points="85.756,258.464 193.744,258.464 295.123,113.399 85.756,113.399 			"/>
			
				<linearGradient id="SVGID_4_" gradientUnits="userSpaceOnUse" x1="-852.7985" y1="159.7991" x2="-759.2786" y2="159.7991" gradientTransform="matrix(1.5063 1.0527 4.1292 -5.9085 877.3135 2016.1674)">
				<stop  offset="0" style="stop-color:#959397"/>
				<stop  offset="0.234" style="stop-color:#A6A4AA"/>
				<stop  offset="0.731" style="stop-color:#C4C2CC"/>
				<stop  offset="1" style="stop-color:#D0CED9"/>
			</linearGradient>
			<path style="opacity:0.3;fill:url(#SVGID_4_);enable-background:new    ;" d="M347.627,101.69h-44.321l-8.182,11.709h56.864
				v145.066H193.744l-8.208,11.75H365.05V119.109C365.05,109.491,357.249,101.69,347.627,101.69z"/>
		</g>
		<polygon style="fill:#676767;" points="351.987,258.464 351.987,113.399 295.123,113.399 193.744,258.464 		"/>
		
			<linearGradient id="SVGID_5_" gradientUnits="userSpaceOnUse" x1="-852.7983" y1="160.0828" x2="-759.2784" y2="160.0828" gradientTransform="matrix(1.5063 1.0527 4.1292 -5.9085 877.3135 2016.1674)">
			<stop  offset="0" style="stop-color:#959397"/>
			<stop  offset="0.234" style="stop-color:#A6A4AA"/>
			<stop  offset="0.731" style="stop-color:#C4C2CC"/>
			<stop  offset="1" style="stop-color:#D0CED9"/>
		</linearGradient>
		<polygon style="opacity:0.3;fill:url(#SVGID_5_);enable-background:new    ;" points="351.987,258.464 351.987,113.399 
			295.123,113.399 193.744,258.464 		"/>
	</g>
</g>
<path style="fill:#202121;" d="M396.324,355.346c0,14.637-7.449,22.086-22.086,22.078l-75.083,0.007
	c-14.637,0-22.086-7.449-22.086-22.086V174.264c0-14.633,7.449-22.078,22.086-22.078h75.083c14.637,0,22.086,7.445,22.086,22.078
	V355.346z"/>
<circle style="fill:#121212;" cx="337.01" cy="361.953" r="8.833"/>
<path style="fill:#202121;" d="M338.323,365.727h-2.606c-0.658,0-1.271-0.254-1.731-0.722c-0.467-0.467-0.714-1.085-0.707-1.739
	v-2.592c0-1.346,1.096-2.446,2.438-2.446h2.606c1.35,0,2.446,1.099,2.446,2.446v2.599
	C340.769,364.627,339.673,365.727,338.323,365.727z M335.716,360.095c-0.322,0-0.568,0.251-0.568,0.576v2.599
	c0,0.161,0.06,0.303,0.161,0.411c0.108,0.108,0.254,0.172,0.408,0.172h2.606c0.322,0,0.576-0.262,0.576-0.583v-2.599
	c0-0.325-0.247-0.576-0.576-0.576H335.716z"/>
<path d="M350.682,168.745c0,1.421-1.156,2.573-2.577,2.573h-22.819c-1.417,0-2.577-1.156-2.577-2.573l0,0
	c0-1.425,1.163-2.573,2.577-2.573h22.819C349.527,166.168,350.682,167.32,350.682,168.745L350.682,168.745z"/>
<rect x="282.6" y="180.322" style="fill:#676767;" width="107.659" height="164.519"/>
<g>
</g>
<g>
</g>
<g>
</g>
<g>
</g>
<g>
</g>
<g>
</g>
<g>
</g>
<g>
</g>
<g>
</g>
<g>
</g>
<g>
</g>
<g>
</g>
<g>
</g>
<g>
</g>
<g>
</g>
</svg>
