<?xml version="1.0" encoding="iso-8859-1"?>
<!-- Generator: Adobe Illustrator 19.0.0, SVG Export Plug-In . SVG Version: 6.00 Build 0)  -->
<svg version="1.1" id="Layer_1" xmlns="http://www.w3.org/2000/svg" xmlns:xlink="http://www.w3.org/1999/xlink" x="0px" y="0px"
	 viewBox="0 0 473.654 473.654" style="enable-background:new 0 0 473.654 473.654;" xml:space="preserve">
<circle style="fill:#1FA85B;" cx="236.827" cy="236.827" r="236.827"/>
<path style="fill:#DDA027;" d="M325.567,391.978c0.883,13.526-1.679,24.782-9.327,25.47c-7.651,0.688-47.758-40.877-59.777-39.804
	c-12.019,1.077-41.663,51.961-51.696,49.777c-10.044-2.176-11.653-9.973-12.543-23.496l7.849-148.454
	c-0.894-13.519,10.138-25.526,24.621-26.828l45.903-4.114c14.483-1.298,26.947,8.616,27.826,22.131L325.567,391.978z"/>
<path style="fill:#DA9027;" d="M303.111,385.898c0.18,13.616-12.075,31.51-19.711,32.044c-7.644,0.531-36.229-48.667-48.237-47.829
	c-12.008,0.838-44.127,51.371-53.996,48.981c-9.865-2.393-11.058-10.273-11.237-23.862l15.545-149.015
	c-0.172-13.601,11.417-25.452,25.885-26.461l45.855-3.209c14.465-1.013,26.345,9.188,26.521,22.793L303.111,385.898z"/>
<path style="fill:#DEBA24;" d="M293.523,394.267c-0.699,13.59-4.547,24.554-12.202,24.457c-7.659-0.108-42.519-45.671-54.553-45.817
	c-12.03-0.157-47.313,47.582-57.002,44.366c-9.686-3.194-10.374-11.144-9.678-24.719l25.096-147.324
	c0.703-13.582,13.017-24.442,27.516-24.255l45.937,0.591c14.495,0.187,25.683,11.346,24.984,24.932L293.523,394.267z"/>
<g>
	<path style="fill:#CC3432;" d="M332.56,225.956c0,16.525-13.391,29.913-29.909,29.913H178.015
		c-16.518,0-29.909-13.388-29.909-29.913V101.328c0-16.518,13.391-29.909,29.909-29.909h124.633
		c16.518,0,29.909,13.391,29.909,29.909v124.629H332.56z"/>
	<path style="fill:#CC3432;" d="M261.486,272.922c-11.682,11.679-30.623,11.679-42.306,0l-88.127-88.123
		c-11.679-11.682-11.679-30.623,0-42.306L219.18,54.37c11.679-11.679,30.62-11.679,42.306,0l88.127,88.119
		c11.675,11.682,11.675,30.623,0,42.306L261.486,272.922z"/>
</g>
<circle style="fill:#DDA027;" cx="240.342" cy="163.644" r="82.259"/>
<circle style="fill:#DEBA24;" cx="240.342" cy="163.644" r="64.811"/>
<g style="opacity:0.4;">
	<path style="fill:#F6E568;" d="M187.622,170.461c-10.127-10.119,0.987-38.147,11.11-48.267
		c10.123-10.123,34.628-19.726,44.744-9.603C253.595,122.707,197.741,180.58,187.622,170.461z"/>
</g>
<g>
</g>
<g>
</g>
<g>
</g>
<g>
</g>
<g>
</g>
<g>
</g>
<g>
</g>
<g>
</g>
<g>
</g>
<g>
</g>
<g>
</g>
<g>
</g>
<g>
</g>
<g>
</g>
<g>
</g>
</svg>
