<?xml version="1.0" encoding="iso-8859-1"?>
<!-- Generator: Adobe Illustrator 19.0.0, SVG Export Plug-In . SVG Version: 6.00 Build 0)  -->
<svg version="1.1" id="Layer_1" xmlns="http://www.w3.org/2000/svg" xmlns:xlink="http://www.w3.org/1999/xlink" x="0px" y="0px"
	 viewBox="0 0 473.654 473.654" style="enable-background:new 0 0 473.654 473.654;" xml:space="preserve">
<circle style="fill:#EDC92C;" cx="236.827" cy="236.827" r="236.827"/>
<g>
	<g>
		<path style="fill:#67B8CB;" d="M365.506,133.379c-22.692,0-103.16,0.007-103.16,0.007v42.362c0,0,84.608,0,104.042,0
			c19.427,0,32.669-14.506,32.669-21.626C399.057,147.003,388.198,133.379,365.506,133.379z"/>
		<path style="fill:#67B8CB;" d="M117.03,133.379c-22.692,0-33.555,13.623-33.555,20.743s13.242,21.626,32.669,21.626
			c19.435,0,104.042,0,104.042,0v-42.362C220.19,133.387,139.722,133.379,117.03,133.379z"/>
	</g>
	<path style="fill:#BB813C;" d="M262.297,122.789v259.066c0,14.076-11.525,15.886-20.298,15.886s-21.611-0.06-21.611-15.886V122.789
		H262.297z"/>
	<path style="fill:#A26828;" d="M241.128,102.936c8.758,0,21.166,12.528,21.166,21.289c0,0-34.606-0.681-42.347,0
		C219.947,115.463,232.343,102.936,241.128,102.936z"/>
	<g>
		<path style="fill:#C9E2E8;" d="M364.784,153.465c0,1.937-1.571,3.508-3.508,3.508h-84.608c-1.937,0-3.508-1.571-3.508-3.508l0,0
			c0-1.937,1.571-3.508,3.508-3.508h84.608C363.214,149.957,364.784,151.528,364.784,153.465L364.784,153.465z"/>
		<path style="fill:#C9E2E8;" d="M206.32,153.465c0,1.937-1.571,3.508-3.508,3.508h-84.608c-1.937,0-3.508-1.571-3.508-3.508l0,0
			c0-1.937,1.571-3.508,3.508-3.508h84.608C204.749,149.957,206.32,151.528,206.32,153.465L206.32,153.465z"/>
	</g>
</g>
<g>
</g>
<g>
</g>
<g>
</g>
<g>
</g>
<g>
</g>
<g>
</g>
<g>
</g>
<g>
</g>
<g>
</g>
<g>
</g>
<g>
</g>
<g>
</g>
<g>
</g>
<g>
</g>
<g>
</g>
</svg>
