<?xml version="1.0" encoding="iso-8859-1"?>
<!-- Generator: Adobe Illustrator 19.0.0, SVG Export Plug-In . SVG Version: 6.00 Build 0)  -->
<svg version="1.1" id="Layer_1" xmlns="http://www.w3.org/2000/svg" xmlns:xlink="http://www.w3.org/1999/xlink" x="0px" y="0px"
	 viewBox="0 0 473.654 473.654" style="enable-background:new 0 0 473.654 473.654;" xml:space="preserve">
<circle style="fill:#EDC92C;" cx="236.827" cy="236.827" r="236.827"/>
<path style="fill:#B03738;" d="M399.286,307.12c8.321,0,15.063,6.75,15.063,15.067v13.777c0,8.321-6.746,15.063-15.063,15.063
	H81.362c-8.321,0-15.063-6.746-15.063-15.063v-13.777c0-8.321,6.746-15.067,15.063-15.067H399.286z"/>
<circle style="fill:#E84849;" cx="311.058" cy="329.643" r="33.286"/>
<path style="fill:#FFFFFF;" d="M311.039,368.542c-21.446,0-38.895-17.449-38.895-38.892c0-21.446,17.449-38.895,38.895-38.895
	c21.446,0,38.892,17.449,38.892,38.895C349.934,351.094,332.486,368.542,311.039,368.542z M311.039,301.974
	c-15.261,0-27.677,12.415-27.677,27.677s12.415,27.673,27.677,27.673s27.673-12.412,27.673-27.673S326.3,301.974,311.039,301.974z"
	/>
<g>
	<path style="fill:#E84849;" d="M312.004,242.65c0,5.542-4.491,10.037-10.037,10.037H263.15c-5.542,0-10.037-4.491-10.037-10.037
		V90.969c0-5.538,4.491-10.037,10.037-10.037h38.817c5.542,0,10.037,4.495,10.037,10.037V242.65z"/>
	<path style="fill:#E84849;" d="M222.609,242.65c0,5.542-4.491,10.037-10.037,10.037h-38.817c-5.542,0-10.037-4.491-10.037-10.037
		V90.969c0-5.538,4.495-10.037,10.037-10.037h38.817c5.542,0,10.037,4.495,10.037,10.037V242.65z"/>
</g>
<g>
</g>
<g>
</g>
<g>
</g>
<g>
</g>
<g>
</g>
<g>
</g>
<g>
</g>
<g>
</g>
<g>
</g>
<g>
</g>
<g>
</g>
<g>
</g>
<g>
</g>
<g>
</g>
<g>
</g>
</svg>
