<?xml version="1.0" encoding="iso-8859-1"?>
<!-- Generator: Adobe Illustrator 19.0.0, SVG Export Plug-In . SVG Version: 6.00 Build 0)  -->
<svg version="1.1" id="Layer_1" xmlns="http://www.w3.org/2000/svg" xmlns:xlink="http://www.w3.org/1999/xlink" x="0px" y="0px"
	 viewBox="0 0 473.654 473.654" style="enable-background:new 0 0 473.654 473.654;" xml:space="preserve">
<circle style="fill:#344E5D;" cx="236.827" cy="236.827" r="236.827"/>
<g>
	<ellipse style="fill:#F6A2A3;" cx="232.153" cy="275.307" rx="148.394" ry="140.537"/>
	<path style="fill:#F6A2A3;" d="M362.81,193.759c-21.345,0-38.645,17.303-38.645,38.648c0,21.342,17.299,38.645,38.645,38.645
		c21.342,0,38.648-17.303,38.648-38.645C401.458,211.062,384.151,193.759,362.81,193.759z M362.81,259.811
		c-15.138,0-27.407-12.27-27.407-27.404c0-15.138,12.27-27.404,27.407-27.404c15.134,0,27.4,12.266,27.4,27.404
		C390.213,247.541,377.944,259.811,362.81,259.811z"/>
</g>
<path style="fill:#F9C7C7;" d="M316.66,367.619c-14.491-8.586-10.011-43.764-1.417-58.255c8.601-14.483,33.731-32.549,48.199-23.963
	C377.936,293.983,331.139,376.201,316.66,367.619z"/>
<path style="fill:#F6A2A3;" d="M372.813,198.583c-2.887,4.51-4.054,10.116-2.808,15.755c2.494,11.249,13.623,18.343,24.864,15.856
	c11.249-2.491,18.343-13.627,15.848-24.861c-1.881-8.5,7.52-20.067,11.406-2.528c3.878,17.539-7.195,34.905-24.73,38.787
	c-17.539,3.882-34.901-7.191-38.787-24.73c-1.657-7.487-0.568-14.936,2.565-21.323L372.813,198.583z"/>
<ellipse transform="matrix(-0.2057 -0.9786 0.9786 -0.2057 -53.9453 425.1966)" style="fill:#E69091;" cx="145.584" cy="234.491" rx="34.964" ry="29.064"/>
<ellipse transform="matrix(-0.2057 -0.9786 0.9786 -0.2057 -52.8966 430.0588)" style="fill:#FFFFFF;" cx="148.081" cy="236.496" rx="32.324" ry="26.865"/>
<ellipse transform="matrix(-0.2057 -0.9786 0.9786 -0.2057 -57.9029 441.1848)" style="fill:#343433;" cx="150.093" cy="244.091" rx="25.941" ry="19.666"/>
<ellipse style="fill:#FFFFFF;" cx="147.635" cy="231.042" rx="6.204" ry="4.136"/>
<ellipse transform="matrix(-0.2058 0.9786 -0.9786 -0.2058 534.2034 37.7632)" style="fill:#E69091;" cx="251.778" cy="235.654" rx="34.969" ry="29.064"/>
<ellipse transform="matrix(-0.2058 0.9786 -0.9786 -0.2058 533.1751 42.721)" style="fill:#FFFFFF;" cx="249.252" cy="237.716" rx="32.329" ry="26.865"/>
<ellipse transform="matrix(-0.2057 0.9786 -0.9786 -0.2057 538.1526 53.833)" style="fill:#343433;" cx="247.229" cy="245.314" rx="25.945" ry="19.666"/>
<ellipse style="fill:#FFFFFF;" cx="249.703" cy="232.228" rx="6.204" ry="4.128"/>
<ellipse style="fill:#E69091;" cx="200.512" cy="299.39" rx="60.776" ry="59.871"/>
<path style="fill:#F6A2A3;" d="M254.037,295.752c0,33.065-27.213,16.323-60.779,16.323c-33.57,0-60.779,16.742-60.779-16.323
	c0-33.077,27.209-59.878,60.779-59.878C226.82,235.874,254.037,262.675,254.037,295.752z"/>
<g>
	<ellipse style="fill:#E69091;" cx="210.351" cy="289.106" rx="10.445" ry="10.288"/>
	<ellipse style="fill:#E69091;" cx="175.117" cy="289.106" rx="10.445" ry="10.288"/>
</g>
<g>
	<path style="fill:#D16B6B;" d="M188,162.892h28.578c0,0,28.574-20.613,38.409-20.613L229.221,139
		C229.225,139.004,204.398,140.414,188,162.892z"/>
	<path style="fill:#D16B6B;" d="M234.273,143.689l11.365,1.447c3.732-1.72,7.057-2.853,9.349-2.853l-25.766-3.28
		c0,0-24.827,1.41-41.221,23.892h13.137C214.319,144.819,234.273,143.689,234.273,143.689z"/>
</g>
<path style="fill:#AF4949;" d="M234.273,143.689c0,0-19.954,1.133-33.136,19.206h15.441c0,0,16.791-12.105,29.06-17.759
	L234.273,143.689z"/>
<path style="fill:#DAC425;" d="M223.268,125.627c-14.704,1.642-28.518-14.016-30.855-34.972s7.689-39.277,22.396-40.915
	c14.711-1.642,26.207-6.769,30.863,34.976C250.383,126.973,237.983,123.986,223.268,125.627z"/>
<ellipse transform="matrix(0.9938 -0.1108 0.1108 0.9938 -8.1691 25.9864)" style="fill:#F4E028;" cx="229.718" cy="86.491" rx="26.797" ry="38.176"/>
<path style="fill:#F9F29A;" d="M204.027,71.665c0,0-1.926,7.662-1.249,15.269l-10.639,1.301c0,0-1.346-8.93,1.331-15.34
	L204.027,71.665z"/>
<path style="fill:#EDE7DD;" d="M229.692,57.638v3.175c2.098,0.217,3.893,0.647,5.389,1.294c1.496,0.643,2.801,1.623,3.919,2.932
	c0.879,0.998,1.559,2.023,2.038,3.081c0.482,1.058,0.718,2.027,0.718,2.906c0,0.98-0.359,1.825-1.07,2.543
	c-0.711,0.718-1.582,1.073-2.599,1.073c-1.918,0-3.156-1.043-3.725-3.115c-0.651-2.446-2.203-4.069-4.671-4.876v12.217
	c2.427,0.666,4.36,1.268,5.796,1.817c1.443,0.546,2.73,1.339,3.863,2.382c1.215,1.073,2.15,2.36,2.805,3.852
	c0.658,1.5,0.984,3.138,0.984,4.918c0,2.233-0.527,4.319-1.571,6.268c-1.047,1.948-2.588,3.541-4.626,4.772
	c-2.034,1.234-4.45,1.963-7.247,2.203v7.311c0,1.156-0.112,1.997-0.34,2.524c-0.224,0.531-0.714,0.793-1.477,0.793
	c-0.707,0-1.2-0.217-1.488-0.647c-0.277-0.43-0.426-1.096-0.426-1.997v-7.924c-2.285-0.254-4.286-0.793-5.998-1.615
	c-1.705-0.823-3.141-1.844-4.286-3.066c-1.152-1.223-1.993-2.494-2.539-3.818c-0.55-1.324-0.826-2.618-0.826-3.889
	c0-0.942,0.37-1.788,1.103-2.543c0.729-0.752,1.645-1.129,2.741-1.129c0.883,0,1.63,0.206,2.233,0.617
	c0.61,0.408,1.025,0.987,1.264,1.731c0.531,1.608,0.991,2.835,1.376,3.68c0.396,0.856,0.991,1.63,1.78,2.337
	c0.793,0.703,1.847,1.242,3.152,1.615V85.408c-2.621-0.725-4.809-1.529-6.57-2.423c-1.761-0.886-3.194-2.158-4.286-3.799
	c-1.096-1.645-1.642-3.758-1.642-6.339c0-3.369,1.066-6.129,3.212-8.283c2.143-2.15,5.239-3.403,9.285-3.755v-3.108
	c0-1.645,0.617-2.464,1.855-2.464C229.068,55.234,229.692,56.034,229.692,57.638z M225.96,77.776V66.535
	c-1.642,0.49-2.917,1.133-3.837,1.941c-0.924,0.804-1.384,2.016-1.384,3.639c0,1.548,0.43,2.715,1.294,3.511
	C222.89,76.414,224.202,77.132,225.96,77.776z M229.692,86.5v12.857c1.975-0.389,3.504-1.182,4.581-2.378
	c1.077-1.189,1.615-2.58,1.615-4.166c0-1.705-0.524-3.018-1.571-3.953C233.271,87.932,231.73,87.143,229.692,86.5z"/>
<path style="fill:#F3BAB9;" d="M254.848,181.519c10.901-8.167,28.97-21.271,34.288-22.516c4.633-1.092,8.698,0.819,10.688,5.684
	c2.262,5.568,1.455,26.936,0.673,40.402c2.936,3.048,5.426,6.241,7.483,9.506c0.875-12.068,3.751-56.071-0.112-65.555
	c-2.636-6.458-8.033-8.986-14.188-7.543c-10.306,2.416-56.834,38.499-56.834,38.499c-0.101,0.194-0.157,0.396-0.243,0.598
	C242.339,180.113,248.498,180.412,254.848,181.519z"/>
<path style="fill:#E69091;" d="M300.497,205.089c0.782-13.466,1.593-34.83-0.673-40.402c-1.989-4.865-6.054-6.776-10.688-5.684
	c-5.318,1.242-23.387,14.349-34.288,22.516c5.991,1.043,12.142,2.775,18.26,5.31C284.14,191.403,293.489,197.827,300.497,205.089z"
	/>
<path style="fill:#F3BAB9;" d="M150.327,181.519c-10.901-8.167-28.974-21.271-34.288-22.516c-4.633-1.092-8.698,0.819-10.688,5.684
	c-2.266,5.568-1.455,26.936-0.673,40.402c-2.939,3.048-5.426,6.241-7.483,9.506c-0.875-12.068-3.751-56.071,0.116-65.555
	c2.633-6.458,8.025-8.986,14.184-7.543c10.306,2.416,56.834,38.499,56.834,38.499c0.101,0.194,0.157,0.396,0.243,0.598
	C162.84,180.113,156.677,180.412,150.327,181.519z"/>
<path style="fill:#E69091;" d="M104.678,205.089c-0.782-13.466-1.597-34.83,0.673-40.402c1.989-4.865,6.054-6.776,10.688-5.684
	c5.314,1.242,23.387,14.349,34.288,22.516c-5.995,1.043-12.142,2.775-18.264,5.31C121.031,191.403,111.686,197.827,104.678,205.089z
	"/>
<g>
</g>
<g>
</g>
<g>
</g>
<g>
</g>
<g>
</g>
<g>
</g>
<g>
</g>
<g>
</g>
<g>
</g>
<g>
</g>
<g>
</g>
<g>
</g>
<g>
</g>
<g>
</g>
<g>
</g>
</svg>
