<?xml version="1.0" encoding="iso-8859-1"?>
<!-- Generator: Adobe Illustrator 19.0.0, SVG Export Plug-In . SVG Version: 6.00 Build 0)  -->
<svg version="1.1" id="Layer_1" xmlns="http://www.w3.org/2000/svg" xmlns:xlink="http://www.w3.org/1999/xlink" x="0px" y="0px"
	 viewBox="0 0 473.658 473.658" style="enable-background:new 0 0 473.658 473.658;" xml:space="preserve">
<circle style="fill:#357180;" cx="236.829" cy="236.829" r="236.829"/>
<path style="fill:#EED22F;" d="M243.295,93.311c-58.57,0-106.051,47.474-106.051,106.051c0,77.144,100.087,180.297,109.092,180.297
	c8.997,0,103.015-112.248,103.015-180.297C349.35,140.785,301.876,93.311,243.295,93.311z M242.794,234.817
	c-22.991,0-41.618-18.13-41.618-40.5s18.623-40.507,41.618-40.507c22.984,0,41.618,18.137,41.618,40.507
	S265.777,234.817,242.794,234.817z"/>
<path style="fill:#E4B422;" d="M246.335,381.529c-9.364,0-110.961-104.241-110.961-182.167c0-59.512,48.409-107.921,107.921-107.921
	s107.921,48.409,107.921,107.921C351.22,267.026,256.679,381.529,246.335,381.529z M243.295,95.18
	c-57.444,0-104.182,46.738-104.182,104.182c0,74.478,97.712,176.55,107.199,178.413c8.968-2.236,101.167-110.711,101.167-178.413
	C347.48,141.918,300.742,95.18,243.295,95.18z M242.794,236.687c-23.978,0-43.488-19.005-43.488-42.37s19.509-42.377,43.488-42.377
	s43.488,19.012,43.488,42.377S266.772,236.687,242.794,236.687z M242.794,155.68c-21.91,0-39.748,17.333-39.748,38.638
	c0,21.297,17.838,38.63,39.748,38.63c21.918,0,39.748-17.333,39.748-38.63C282.542,173.013,264.711,155.68,242.794,155.68z"/>
<path style="fill:#EED566;" d="M243.867,236.81c-23.978,0-44.561-19.128-44.561-42.493s20.583-42.598,44.561-42.598V95.18
	c-57.444,0-104.754,46.738-104.754,104.182c0,73.625,95.412,174.131,106.784,178.244L243.867,236.81z"/>
<g>
	<path style="fill:#E9B82B;" d="M243.295,91.441c-59.512,0-107.921,48.409-107.921,107.921c0,76.991,99.114,179.594,110.524,182.051
		v-1.87v-1.937c-11.372-4.114-106.784-104.623-106.784-178.244c0-57.444,46.738-104.182,104.182-104.182
		C244.174,95.18,244.174,91.441,243.295,91.441z"/>
	<path style="fill:#E9B82B;" d="M242.794,151.94c-23.978,0-43.488,19.012-43.488,42.377s20.583,42.37,44.561,42.37l-0.153-3.74
		c-21.918,0-40.668-17.333-40.668-38.63c0-21.305,17.838-38.638,39.748-38.638c1.043,0,2.075,0.075,3.104,0.153v-1.87v-1.87
		C244.865,152.019,243.837,151.94,242.794,151.94z"/>
</g>
<g>
</g>
<g>
</g>
<g>
</g>
<g>
</g>
<g>
</g>
<g>
</g>
<g>
</g>
<g>
</g>
<g>
</g>
<g>
</g>
<g>
</g>
<g>
</g>
<g>
</g>
<g>
</g>
<g>
</g>
</svg>
