<?xml version="1.0" encoding="iso-8859-1"?>
<!-- Generator: Adobe Illustrator 19.0.0, SVG Export Plug-In . SVG Version: 6.00 Build 0)  -->
<svg version="1.1" id="Layer_1" xmlns="http://www.w3.org/2000/svg" xmlns:xlink="http://www.w3.org/1999/xlink" x="0px" y="0px"
	 viewBox="0 0 473.654 473.654" style="enable-background:new 0 0 473.654 473.654;" xml:space="preserve">
<circle style="fill:#EDC92C;" cx="236.827" cy="236.827" r="236.827"/>
<path style="fill:#202121;" d="M327.602,374.75c0,21.761-11.073,32.841-32.837,32.83l-111.645,0.011
	c-21.764,0-32.837-11.08-32.837-32.841V105.486c0-21.753,11.073-32.83,32.837-32.83h111.645c21.764,0,32.837,11.077,32.837,32.83
	V374.75z"/>
<path style="fill:#121212;" d="M252.563,384.6c0,7.255-5.886,13.141-13.141,13.141c-7.259,0-13.133-5.882-13.133-13.141
	c0-7.259,5.879-13.118,13.133-13.118C246.677,371.482,252.563,377.342,252.563,384.6z"/>
<path style="fill:#202121;" d="M241.367,389.727h-3.878c-0.849,0-1.649-0.333-2.251-0.939c-0.606-0.606-0.935-1.41-0.927-2.262
	v-3.855c0-1.758,1.425-3.186,3.179-3.186h3.878c1.754,0,3.186,1.429,3.186,3.186v3.863
	C244.549,388.291,243.121,389.727,241.367,389.727z M237.489,381.351c-0.722,0-1.309,0.587-1.309,1.316v3.863
	c-0.007,0.359,0.131,0.688,0.381,0.939c0.247,0.247,0.576,0.389,0.927,0.389h3.878c0.722,0,1.316-0.595,1.316-1.324v-3.863
	c0-0.725-0.591-1.316-1.316-1.316h-3.878V381.351z"/>
<path d="M259.743,97.278c0,2.117-1.724,3.829-3.833,3.829h-33.929c-2.117,0-3.833-1.713-3.833-3.829l0,0
	c0-2.113,1.716-3.822,3.833-3.822h33.925C258.019,93.452,259.743,95.161,259.743,97.278L259.743,97.278z"/>
<rect x="158.483" y="114.521" style="fill:#676767;" width="160.08" height="244.643"/>
<g>
</g>
<g>
</g>
<g>
</g>
<g>
</g>
<g>
</g>
<g>
</g>
<g>
</g>
<g>
</g>
<g>
</g>
<g>
</g>
<g>
</g>
<g>
</g>
<g>
</g>
<g>
</g>
<g>
</g>
</svg>
