<?xml version="1.0" encoding="iso-8859-1"?>
<!-- Generator: Adobe Illustrator 19.0.0, SVG Export Plug-In . SVG Version: 6.00 Build 0)  -->
<svg version="1.1" id="Layer_1" xmlns="http://www.w3.org/2000/svg" xmlns:xlink="http://www.w3.org/1999/xlink" x="0px" y="0px"
	 viewBox="0 0 473.654 473.654" style="enable-background:new 0 0 473.654 473.654;" xml:space="preserve">
<circle style="fill:#EDC92C;" cx="236.827" cy="236.827" r="236.827"/>
<path style="fill:#F4DD90;" d="M372.596,297.595c-18.324-17.625-36.876-28.712-59.082-12.285
	c-22.336,16.529-24.7,34.875-24.7,34.875s2.098,35.167-82.671-41.068c-76.28-84.806-41.098-82.708-41.098-82.708
	s18.346-2.363,34.875-24.7c16.428-22.202,4.828-40.275-12.292-59.085c-54.777-60.185-87.981,8.208-87.981,8.208
	c-38.783,65.274,25.863,142.852,75.734,189.065c46.217,49.871,123.765,114.457,189.009,75.681
	C364.384,385.576,433.641,356.333,372.596,297.595z"/>
<path style="fill:#404040;" d="M129.991,90.595c-0.045,0.015-0.067,0.052-0.108,0.071c0.49-0.206,0.995-0.389,1.488-0.572
	C130.911,90.262,130.444,90.415,129.991,90.595z"/>
<g>
</g>
<g>
</g>
<g>
</g>
<g>
</g>
<g>
</g>
<g>
</g>
<g>
</g>
<g>
</g>
<g>
</g>
<g>
</g>
<g>
</g>
<g>
</g>
<g>
</g>
<g>
</g>
<g>
</g>
</svg>
