<?xml version="1.0" encoding="iso-8859-1"?>
<!-- Generator: Adobe Illustrator 19.0.0, SVG Export Plug-In . SVG Version: 6.00 Build 0)  -->
<svg version="1.1" id="Layer_1" xmlns="http://www.w3.org/2000/svg" xmlns:xlink="http://www.w3.org/1999/xlink" x="0px" y="0px"
	 viewBox="0 0 473.654 473.654" style="enable-background:new 0 0 473.654 473.654;" xml:space="preserve">
<circle style="fill:#EDC92C;" cx="236.827" cy="236.827" r="236.827"/>
<path style="fill:#E84849;" d="M224.015,62.574c-8.53,0-15.448,4.054-15.448,12.584v190.464c0,8.53,6.918,12.584,15.448,12.584
	c17.995,0,95.688-90.838,95.688-106.84C319.704,155.357,232.149,62.574,224.015,62.574z"/>
<path style="fill:#B03738;" d="M399.259,307.101c8.321,0,15.063,6.75,15.063,15.067v13.777c0,8.321-6.746,15.059-15.063,15.059
	H81.339c-8.321,0-15.063-6.742-15.063-15.059v-13.777c0-8.321,6.746-15.067,15.063-15.067H399.259z"/>
<circle style="fill:#E84849;" cx="311.02" cy="329.643" r="33.286"/>
<path style="fill:#FFFFFF;" d="M311.017,368.528c-21.446,0-38.895-17.449-38.895-38.892c0-21.45,17.449-38.899,38.895-38.899
	c21.443,0,38.892,17.449,38.892,38.899C349.908,351.079,332.459,368.528,311.017,368.528z M311.017,301.952
	c-15.261,0-27.677,12.415-27.677,27.68c0,15.257,12.415,27.673,27.677,27.673c15.257,0,27.673-12.415,27.673-27.673
	C338.689,314.367,326.274,301.952,311.017,301.952z"/>
<g>
</g>
<g>
</g>
<g>
</g>
<g>
</g>
<g>
</g>
<g>
</g>
<g>
</g>
<g>
</g>
<g>
</g>
<g>
</g>
<g>
</g>
<g>
</g>
<g>
</g>
<g>
</g>
<g>
</g>
</svg>
