<?xml version="1.0" encoding="UTF-8" standalone="no"?>
<!-- Created with Inkscape (http://www.inkscape.org/) -->

<svg
   xmlns:dc="http://purl.org/dc/elements/1.1/"
   xmlns:cc="http://creativecommons.org/ns#"
   xmlns:rdf="http://www.w3.org/1999/02/22-rdf-syntax-ns#"
   xmlns:svg="http://www.w3.org/2000/svg"
   xmlns="http://www.w3.org/2000/svg"
   xmlns:sodipodi="http://sodipodi.sourceforge.net/DTD/sodipodi-0.dtd"
   xmlns:inkscape="http://www.inkscape.org/namespaces/inkscape"
   version="1.1"
   id="svg4034"
   xml:space="preserve"
   width="880"
   height="880"
   viewBox="0 0 880 880"
   sodipodi:docname="top-confidential-sticker-pd.svg"
   inkscape:version="0.92.4 (5da689c313, 2019-01-14)"><metadata
     id="metadata4040"><rdf:RDF><cc:Work
         rdf:about=""><dc:format>image/svg+xml</dc:format><dc:type
           rdf:resource="http://purl.org/dc/dcmitype/StillImage" /><dc:title /></cc:Work></rdf:RDF></metadata><defs
     id="defs4038"><clipPath
       clipPathUnits="userSpaceOnUse"
       id="clipPath4050"><path
         d="M 0,660 H 660 V 0 H 0 Z"
         id="path4048"
         inkscape:connector-curvature="0" /></clipPath></defs><sodipodi:namedview
     pagecolor="#ffffff"
     bordercolor="#666666"
     borderopacity="1"
     objecttolerance="10"
     gridtolerance="10"
     guidetolerance="10"
     inkscape:pageopacity="0"
     inkscape:pageshadow="2"
     inkscape:window-width="1920"
     inkscape:window-height="1018"
     id="namedview4036"
     showgrid="false"
     inkscape:zoom="0.83401598"
     inkscape:cx="507.11864"
     inkscape:cy="449.32203"
     inkscape:window-x="-8"
     inkscape:window-y="-8"
     inkscape:window-maximized="1"
     inkscape:current-layer="g4042" /><g
     id="g4042"
     inkscape:groupmode="layer"
     inkscape:label="top-confidential-sticker-pd"
     transform="matrix(1.3333333,0,0,-1.3333333,0,880)"><g
       id="g4044"><g
         id="g4046"
         clip-path="url(#clipPath4050)"><path
           d="m 211.118,465.678 c -31.027,-24.894 -53.127,-59.776 -62.229,-98.222 l 9.169,-2.17 c 8.621,36.413 29.558,69.456 58.956,93.042 30.283,24.295 66.798,37.137 105.6,37.137 38.801,0 75.319,-12.842 105.6,-37.137 29.4,-23.586 50.338,-56.629 58.959,-93.042 l 9.17,2.17 c -9.104,38.446 -31.203,73.328 -62.233,98.222 -31.515,25.285 -71.113,39.21 -111.496,39.21 -40.383,0 -79.981,-13.925 -111.496,-39.21"
           style="fill:#ed1c24;fill-opacity:1;fill-rule:nonzero;stroke:none"
           id="path4052"
           inkscape:connector-curvature="0" /><path
           d="M 138.47,537.669 C 87.974,493.62 54.874,433.026 45.266,367.05 l 9.325,-1.358 c 9.283,63.751 41.272,122.305 90.073,164.876 49.278,42.988 112.475,66.662 177.95,66.662 65.475,0 128.672,-23.674 177.951,-66.662 48.799,-42.571 80.789,-101.125 90.073,-164.876 l 9.324,1.358 c -9.608,65.976 -42.707,126.57 -93.203,170.619 -50.996,44.485 -116.393,68.983 -184.145,68.983 -67.753,0 -133.15,-24.498 -184.144,-68.983"
           style="fill:#ed1c24;fill-opacity:1;fill-rule:nonzero;stroke:none"
           id="path4054"
           inkscape:connector-curvature="0" /><path
           d="M 46.02,271.383 C 56.619,206.504 90.077,147.073 140.231,104.04 190.938,60.533 255.708,36.572 322.614,36.572 c 66.905,0 131.678,23.961 182.383,67.468 50.156,43.034 83.613,102.464 94.213,167.343 l -9.301,1.519 c -10.24,-62.691 -42.574,-120.121 -91.047,-161.71 -49,-42.043 -111.593,-65.196 -176.248,-65.196 -64.655,0 -127.248,23.153 -176.248,65.196 -48.47,41.589 -80.805,99.019 -91.047,161.71 z"
           style="fill:#ed1c24;fill-opacity:1;fill-rule:nonzero;stroke:none"
           id="path4056"
           inkscape:connector-curvature="0" /><path
           d="m 322.614,147.76 c -76.498,0 -143.703,51.646 -163.429,125.597 l -9.104,-2.429 c 20.824,-78.068 91.772,-132.592 172.533,-132.592 80.76,0 151.711,54.524 172.535,132.592 l -9.103,2.429 C 466.317,199.406 399.114,147.76 322.614,147.76"
           style="fill:#ed1c24;fill-opacity:1;fill-rule:nonzero;stroke:none"
           id="path4058"
           inkscape:connector-curvature="0" /><path
           d="m 211.118,465.678 c -31.027,-24.894 -53.127,-59.776 -62.229,-98.222 l 9.169,-2.17 c 8.621,36.413 29.558,69.456 58.956,93.042 30.283,24.295 66.798,37.137 105.6,37.137 38.801,0 75.319,-12.842 105.6,-37.137 29.4,-23.586 50.338,-56.629 58.959,-93.042 l 9.17,2.17 c -9.104,38.446 -31.203,73.328 -62.233,98.222 -31.515,25.285 -71.113,39.21 -111.496,39.21 -40.383,0 -79.981,-13.925 -111.496,-39.21"
           style="fill:#ed1c24;fill-opacity:1;fill-rule:nonzero;stroke:none"
           id="path4060"
           inkscape:connector-curvature="0" /><path
           d="m 106.48,448.995 11.906,-5.624 c 0.567,-0.267 0.948,-0.644 1.147,-1.129 0.199,-0.485 0.181,-0.98 -0.057,-1.483 -0.228,-0.485 -0.579,-0.812 -1.051,-0.98 -0.471,-0.168 -1.011,-0.168 -1.62,0.002 l -1.916,0.549 c -1.943,0.563 -3.771,0.739 -5.487,0.531 -1.062,-0.138 -2.066,-0.529 -3.012,-1.173 l -3.521,1.664 z m -4.749,-10.054 34.199,-16.155 c 0.758,-0.358 1.37,-0.469 1.838,-0.332 0.267,0.063 0.457,0.151 0.569,0.264 0.113,0.113 0.446,0.504 0.998,1.17 0.654,0.832 1.408,1.047 2.262,0.643 0.505,-0.239 0.793,-0.684 0.866,-1.336 0.057,-0.479 -0.12,-1.156 -0.533,-2.031 l -0.454,-0.962 -6.143,-13.003 -0.455,-0.961 c -0.402,-0.854 -0.838,-1.438 -1.307,-1.751 -0.468,-0.312 -0.965,-0.345 -1.487,-0.097 -0.855,0.403 -1.169,1.122 -0.943,2.154 0.164,0.848 0.255,1.352 0.269,1.511 0.016,0.158 -0.041,0.351 -0.171,0.579 -0.192,0.447 -0.667,0.849 -1.424,1.207 l -34.198,16.156 z m -10.848,-22.963 3.61,7.643 3.521,-1.663 c 0.094,-1.158 0.431,-2.182 1.008,-3.071 0.928,-1.458 2.227,-2.758 3.895,-3.902 l 1.64,-1.13 c 0.519,-0.363 0.862,-0.78 1.03,-1.251 0.17,-0.471 0.141,-0.949 -0.088,-1.433 -0.238,-0.504 -0.607,-0.833 -1.11,-0.987 -0.501,-0.154 -1.035,-0.097 -1.599,0.169 z"
           style="fill:#ed1c24;fill-opacity:1;fill-rule:nonzero;stroke:none"
           id="path4062"
           inkscape:connector-curvature="0" /><path
           d="m 137.727,487.465 -2.63,2.269 c 1.595,1.684 3.336,2.979 5.225,3.887 1.887,0.907 3.981,1.46 6.279,1.658 6.094,0.523 12.018,-1.698 17.77,-6.662 5.64,-4.867 8.671,-10.243 9.091,-16.131 0.336,-4.54 -0.92,-8.739 -3.768,-12.6 l -2.683,2.315 c 0.26,0.502 0.415,0.934 0.462,1.3 0.048,0.366 0.006,0.771 -0.121,1.217 -0.294,1.008 -1.116,2.095 -2.465,3.26 l -21.801,18.808 c -0.859,0.742 -1.665,1.186 -2.418,1.332 -0.506,0.101 -0.972,0.103 -1.396,0.007 -0.421,-0.098 -0.936,-0.316 -1.545,-0.66 m -1.747,-2.025 c -0.41,-1.066 -0.509,-1.984 -0.296,-2.753 0.215,-0.77 0.809,-1.575 1.782,-2.415 l 21.8,-18.809 c 1.433,-1.235 2.606,-1.913 3.522,-2.035 0.75,-0.117 1.575,0.132 2.475,0.748 l 2.684,-2.315 c -3.402,-3.351 -7.364,-5.2 -11.885,-5.545 -5.885,-0.444 -11.647,1.766 -17.288,6.633 -2.826,2.44 -5.022,5.063 -6.585,7.869 -1.563,2.806 -2.433,5.716 -2.612,8.73 -0.139,2.302 0.096,4.448 0.707,6.439 0.613,1.992 1.635,3.899 3.067,5.722 z"
           style="fill:#ed1c24;fill-opacity:1;fill-rule:nonzero;stroke:none"
           id="path4064"
           inkscape:connector-curvature="0" /><path
           d="m 202.75,511.647 -1.896,2.877 c 0.649,0.685 1.066,1.229 1.248,1.632 0.182,0.403 0.254,0.886 0.215,1.45 -0.085,0.947 -0.52,2.011 -1.298,3.194 l -5.661,8.597 c -0.554,0.843 -1.03,1.43 -1.428,1.759 -0.396,0.33 -0.895,0.542 -1.497,0.635 -0.848,0.159 -1.756,0.012 -2.718,-0.441 l -1.912,2.905 c 3.698,2.435 6.655,3.882 8.875,4.341 2.56,0.529 4.981,0.351 7.264,-0.536 2.323,-0.911 4.299,-2.603 5.929,-5.076 1.816,-2.76 2.693,-5.42 2.631,-7.979 -0.075,-2.541 -0.936,-4.944 -2.581,-7.209 -1.375,-1.856 -3.765,-3.906 -7.171,-6.149 m -17.208,21.12 20.8,-31.59 c 0.46,-0.699 0.925,-1.113 1.394,-1.24 0.262,-0.086 0.47,-0.11 0.624,-0.072 0.155,0.038 0.64,0.197 1.455,0.477 0.989,0.367 1.742,0.157 2.262,-0.632 0.306,-0.467 0.322,-0.996 0.047,-1.588 -0.199,-0.44 -0.691,-0.918 -1.479,-1.436 l -0.912,-0.6 -12.006,-7.906 -0.7,-0.461 c -0.646,-0.424 -1.221,-0.631 -1.73,-0.618 -0.508,0.011 -0.911,0.242 -1.204,0.69 -0.485,0.735 -0.447,1.455 0.116,2.16 0.463,0.586 0.728,0.934 0.798,1.044 0.069,0.109 0.103,0.28 0.104,0.513 0.026,0.428 -0.165,0.956 -0.579,1.584 l -17.722,26.914 c -0.412,0.627 -0.822,1.013 -1.225,1.158 -0.213,0.09 -0.383,0.125 -0.513,0.106 -0.128,-0.021 -0.553,-0.127 -1.273,-0.319 -0.871,-0.239 -1.547,0.008 -2.03,0.743 -0.295,0.448 -0.349,0.908 -0.159,1.38 0.191,0.471 0.609,0.92 1.253,1.344 l 0.7,0.461 z"
           style="fill:#ed1c24;fill-opacity:1;fill-rule:nonzero;stroke:none"
           id="path4066"
           inkscape:connector-curvature="0" /><path
           d="m 278.498,567.082 -0.644,3.48 c 1.28,0.15 2.408,0.191 3.381,0.123 0.973,-0.067 2.379,-0.298 4.22,-0.69 0.454,-0.089 0.817,-0.107 1.091,-0.057 0.401,0.075 0.67,0.264 0.812,0.57 l 0.528,1.033 c 0.253,0.519 0.623,0.825 1.108,0.915 0.57,0.105 1.024,-0.023 1.365,-0.386 0.337,-0.361 0.591,-0.984 0.755,-1.868 l 1.932,-10.436 c 0.113,-0.609 0.03,-1.14 -0.246,-1.593 -0.277,-0.453 -0.689,-0.73 -1.236,-0.831 -0.423,-0.078 -0.839,-0.014 -1.249,0.194 -0.22,0.132 -0.411,0.31 -0.572,0.531 -0.161,0.221 -0.348,0.606 -0.558,1.155 -0.424,0.989 -1.021,1.979 -1.795,2.969 -0.772,0.99 -1.618,1.847 -2.537,2.57 -1.836,1.425 -3.955,2.198 -6.355,2.321 m 2.843,-38.449 0.667,-3.612 c -1.733,-0.32 -3.736,-0.177 -6.012,0.432 -0.848,0.215 -1.43,0.349 -1.746,0.4 -0.315,0.05 -0.611,0.051 -0.884,0.001 -0.425,-0.079 -0.729,-0.207 -0.913,-0.381 -0.187,-0.177 -0.462,-0.581 -0.827,-1.214 -0.294,-0.533 -0.663,-0.84 -1.106,-0.922 -1.184,-0.219 -1.942,0.574 -2.276,2.38 l -2.135,11.532 c -0.109,0.59 -0.032,1.122 0.23,1.596 0.262,0.473 0.644,0.768 1.147,0.883 0.461,0.106 0.849,0.043 1.165,-0.193 0.317,-0.237 0.638,-0.696 0.961,-1.379 0.823,-1.726 1.839,-3.296 3.052,-4.71 1.211,-1.413 2.533,-2.555 3.961,-3.426 1.458,-0.91 3.029,-1.373 4.716,-1.387 m -6.011,41.624 0.673,-3.637 c -1.244,-0.602 -2.141,-1.341 -2.688,-2.218 -0.548,-0.877 -0.722,-1.863 -0.517,-2.962 0.194,-1.055 0.65,-1.926 1.366,-2.612 0.717,-0.686 1.786,-1.269 3.209,-1.748 0.974,-0.322 3.153,-0.879 6.532,-1.673 2.052,-0.472 3.661,-0.943 4.829,-1.415 1.168,-0.472 2.31,-1.118 3.423,-1.938 2.974,-2.157 4.797,-5.04 5.466,-8.65 0.503,-2.723 0.289,-5.341 -0.645,-7.849 -0.934,-2.51 -2.464,-4.627 -4.593,-6.352 -1.14,-0.911 -2.431,-1.701 -3.869,-2.37 -1.437,-0.671 -2.81,-1.128 -4.121,-1.369 l -0.667,3.611 c 1.758,0.783 2.97,1.646 3.639,2.589 0.667,0.941 0.875,2.088 0.625,3.44 -0.262,1.414 -1.126,2.542 -2.592,3.384 -0.974,0.54 -2.738,1.109 -5.295,1.706 -2.808,0.659 -4.735,1.142 -5.787,1.45 -1.051,0.308 -2.079,0.707 -3.086,1.197 -4.492,2.094 -7.176,5.494 -8.047,10.202 -0.445,2.406 -0.361,4.72 0.256,6.941 0.614,2.22 1.693,4.118 3.237,5.692 2.15,2.188 5.033,3.715 8.652,4.581"
           style="fill:#ed1c24;fill-opacity:1;fill-rule:nonzero;stroke:none"
           id="path4068"
           inkscape:connector-curvature="0" /><path
           d="m 342.804,572.776 12.935,-0.937 -0.824,-11.392 c -0.049,-0.664 -0.213,-1.137 -0.492,-1.418 -0.277,-0.281 -0.697,-0.401 -1.252,-0.361 -0.471,0.034 -0.805,0.155 -1.008,0.363 -0.199,0.209 -0.373,0.62 -0.521,1.235 -0.633,2.546 -1.69,4.531 -3.166,5.952 -1.479,1.423 -3.461,2.354 -5.946,2.792 z m -1.871,-23.393 0.267,3.726 c 1.289,0.511 2.258,1.099 2.91,1.764 0.653,0.665 1.161,1.577 1.524,2.737 0.232,0.804 0.498,1.351 0.801,1.642 0.298,0.291 0.709,0.417 1.222,0.381 0.686,-0.05 1.139,-0.354 1.358,-0.911 0.131,-0.291 0.158,-0.931 0.086,-1.923 l -0.887,-12.239 c -0.072,-1.003 -0.235,-1.689 -0.488,-2.057 -0.252,-0.367 -0.682,-0.529 -1.28,-0.485 -0.494,0.035 -0.869,0.212 -1.125,0.532 -0.258,0.32 -0.447,0.839 -0.568,1.557 -0.258,1.502 -0.695,2.674 -1.313,3.514 -0.619,0.84 -1.455,1.427 -2.507,1.762 m -1.274,-20.478 0.252,3.467 c 1.406,0.113 2.58,0.329 3.516,0.649 0.939,0.318 1.896,0.841 2.875,1.567 0.978,0.725 1.769,1.49 2.377,2.296 0.607,0.805 1.205,1.887 1.799,3.243 0.285,0.667 0.566,1.115 0.839,1.343 0.276,0.227 0.637,0.324 1.086,0.292 0.602,-0.044 1.006,-0.25 1.215,-0.62 0.209,-0.371 0.283,-0.994 0.221,-1.872 l -0.822,-11.333 z m 0.262,44.08 -3.18,-43.869 -14.303,1.037 -0.835,0.06 c -0.77,0.056 -1.35,0.243 -1.747,0.562 -0.394,0.32 -0.572,0.747 -0.533,1.282 0.063,0.878 0.531,1.425 1.406,1.643 0.723,0.183 1.145,0.298 1.266,0.344 0.121,0.045 0.254,0.159 0.397,0.343 0.281,0.323 0.449,0.86 0.504,1.61 l 2.328,32.166 c 0.056,0.751 -0.034,1.307 -0.264,1.669 -0.113,0.202 -0.229,0.334 -0.342,0.396 -0.113,0.062 -0.514,0.236 -1.203,0.524 -0.836,0.341 -1.219,0.951 -1.156,1.831 0.041,0.535 0.277,0.934 0.715,1.192 0.435,0.26 1.039,0.362 1.808,0.307 l 0.836,-0.061 z"
           style="fill:#ed1c24;fill-opacity:1;fill-rule:nonzero;stroke:none"
           id="path4070"
           inkscape:connector-curvature="0" /><path
           d="m 404.081,556.096 1.277,3.684 c 0.938,-0.506 1.684,-0.956 2.239,-1.352 0.554,-0.396 1.541,-1.168 2.961,-2.315 0.908,-0.721 1.535,-1.141 1.879,-1.261 0.587,-0.204 1.125,-0.094 1.611,0.328 l 0.648,0.594 c 0.41,0.403 0.951,0.488 1.621,0.257 0.547,-0.19 0.912,-0.499 1.092,-0.927 0.182,-0.429 0.162,-0.959 -0.056,-1.592 l -4.387,-12.666 c -0.281,-0.814 -0.666,-1.339 -1.158,-1.578 -0.493,-0.24 -0.971,-0.279 -1.438,-0.117 -0.486,0.168 -0.822,0.461 -1.006,0.877 -0.187,0.417 -0.246,1.013 -0.183,1.786 0.131,1.751 0.15,3.154 0.062,4.208 -0.205,2.23 -0.656,4.137 -1.357,5.721 -0.467,1.071 -1.002,1.955 -1.602,2.652 -0.597,0.696 -1.332,1.263 -2.203,1.701 m -13.6,-39.503 1.288,3.714 c 1.625,-0.427 3.5,-0.405 5.619,0.067 1.138,0.266 2.244,0.764 3.318,1.496 1.072,0.732 1.994,1.624 2.77,2.676 0.425,0.579 0.826,0.959 1.195,1.139 0.369,0.178 0.777,0.19 1.225,0.036 0.488,-0.169 0.832,-0.492 1.029,-0.971 0.197,-0.478 0.203,-0.991 0.013,-1.539 -0.318,-0.914 -1.05,-1.898 -2.201,-2.956 -1.15,-1.057 -2.466,-1.944 -3.943,-2.661 -1.805,-0.876 -3.525,-1.394 -5.164,-1.555 -1.637,-0.161 -3.352,0.024 -5.149,0.554 m 12.461,44.058 -1.275,-3.685 c -1.264,0.232 -2.342,0.014 -3.232,-0.654 -0.893,-0.669 -1.622,-1.815 -2.182,-3.44 l -8.705,-25.139 -0.455,-1.309 c -0.16,-0.466 -0.235,-0.992 -0.221,-1.576 0.016,-0.585 0.111,-1.112 0.289,-1.583 0.186,-0.518 0.432,-0.927 0.738,-1.226 0.307,-0.299 0.764,-0.588 1.373,-0.868 l -1.287,-3.713 c -3.933,1.362 -6.998,3.571 -9.189,6.626 -1.932,2.692 -3.018,5.79 -3.258,9.294 -0.238,3.506 0.365,7.349 1.813,11.531 1.06,3.064 2.47,5.776 4.23,8.133 1.758,2.358 3.777,4.233 6.055,5.627 2.304,1.407 4.795,2.318 7.472,2.732 2.678,0.414 5.059,0.26 7.149,-0.463 z"
           style="fill:#ed1c24;fill-opacity:1;fill-rule:nonzero;stroke:none"
           id="path4072"
           inkscape:connector-curvature="0" /><path
           d="m 455.913,506.18 c 1.438,-1.388 2.488,-2.539 3.147,-3.452 0.658,-0.913 1.156,-1.872 1.498,-2.877 0.353,-1.065 0.461,-2.114 0.322,-3.146 -0.139,-1.033 -0.506,-1.97 -1.102,-2.81 l -3.851,-5.439 c -0.401,-0.564 -0.418,-0.976 -0.049,-1.236 0.139,-0.099 0.283,-0.143 0.435,-0.133 0.151,0.011 0.395,0.068 0.729,0.17 0.857,0.284 1.512,0.264 1.965,-0.058 0.295,-0.21 0.482,-0.577 0.556,-1.103 0.073,-0.525 -10e-4,-0.945 -0.222,-1.26 -0.387,-0.541 -1.112,-1.018 -2.18,-1.43 -1.068,-0.412 -2.205,-0.651 -3.41,-0.718 -1.127,-0.069 -2.201,0.068 -3.221,0.41 -1.021,0.343 -2.101,0.918 -3.24,1.724 -2.312,1.638 -3.648,3.578 -4.008,5.82 -0.359,2.242 0.299,4.546 1.973,6.912 l 3.127,4.413 c 0.695,0.981 1.09,1.556 1.185,1.725 0.409,0.763 0.592,1.539 0.553,2.331 -0.072,0.971 -0.541,1.842 -1.406,2.613 l 1.99,2.811 c 1.041,-0.527 1.885,-0.756 2.533,-0.689 0.571,0.068 1.065,0.257 1.481,0.568 0.416,0.31 0.904,0.86 1.463,1.648 l 4.925,6.955 c 0.782,1.103 1.151,2.078 1.106,2.925 -0.045,0.847 -0.516,1.825 -1.414,2.935 l 2.066,2.917 0.684,-0.484 c 1.945,-1.379 3.551,-2.621 4.818,-3.729 1.897,-1.633 3.238,-3.583 4.028,-5.85 1.14,-3.255 0.644,-6.387 -1.487,-9.398 -1.75,-2.469 -3.951,-3.945 -6.609,-4.429 -1.121,-0.207 -2.262,-0.213 -3.426,-0.019 -1.166,0.194 -2.818,0.655 -4.959,1.383 m 4.887,23.989 -21.862,-30.862 c -0.484,-0.683 -0.701,-1.267 -0.646,-1.751 0.016,-0.274 0.068,-0.477 0.162,-0.609 0.092,-0.13 0.416,-0.526 0.977,-1.187 0.707,-0.789 0.787,-1.569 0.242,-2.34 -0.322,-0.454 -0.813,-0.661 -1.465,-0.618 -0.482,0.027 -1.111,0.314 -1.885,0.861 l -0.894,0.634 -11.721,8.301 -0.682,0.485 c -0.634,0.448 -1.037,0.912 -1.213,1.391 -0.175,0.479 -0.107,0.938 0.202,1.375 0.509,0.718 1.195,0.943 2.058,0.672 0.717,-0.218 1.139,-0.339 1.268,-0.364 0.127,-0.024 0.299,0.005 0.515,0.089 0.411,0.13 0.832,0.502 1.266,1.115 l 18.625,26.294 c 0.434,0.613 0.645,1.134 0.633,1.563 0.006,0.232 -0.024,0.404 -0.09,0.516 -0.066,0.112 -0.32,0.47 -0.764,1.073 -0.541,0.725 -0.556,1.446 -0.048,2.164 0.308,0.437 0.718,0.653 1.228,0.647 0.51,-0.007 1.084,-0.234 1.717,-0.682 l 0.681,-0.484 z"
           style="fill:#ed1c24;fill-opacity:1;fill-rule:nonzero;stroke:none"
           id="path4074"
           inkscape:connector-curvature="0" /><path
           d="m 515.673,478.246 8.099,-10.13 -8.925,-7.138 c -0.512,-0.41 -0.965,-0.606 -1.358,-0.589 -0.39,0.015 -0.76,0.242 -1.111,0.677 -0.293,0.369 -0.432,0.697 -0.414,0.985 0.014,0.289 0.197,0.696 0.547,1.221 1.433,2.191 2.17,4.31 2.207,6.359 0.037,2.049 -0.629,4.135 -1.996,6.257 z m -18.444,-14.506 2.917,2.331 c 1.244,-0.596 2.33,-0.908 3.259,-0.936 0.928,-0.026 1.94,0.219 3.035,0.738 0.745,0.376 1.325,0.551 1.741,0.527 0.418,-0.023 0.785,-0.236 1.107,-0.639 0.43,-0.535 0.516,-1.072 0.258,-1.607 -0.125,-0.292 -0.572,-0.745 -1.342,-1.362 l -9.572,-7.655 c -0.793,-0.632 -1.408,-0.981 -1.854,-1.047 -0.441,-0.066 -0.849,0.136 -1.224,0.604 -0.311,0.386 -0.434,0.782 -0.373,1.187 0.06,0.406 0.314,0.897 0.761,1.473 0.93,1.21 1.493,2.328 1.692,3.352 0.197,1.023 0.064,2.036 -0.405,3.034 m -15.89,-12.948 2.713,2.169 c 1.039,-0.956 1.994,-1.67 2.865,-2.142 0.869,-0.471 1.904,-0.82 3.102,-1.046 1.193,-0.225 2.293,-0.288 3.296,-0.187 1.002,0.101 2.202,0.393 3.598,0.878 0.684,0.244 1.201,0.342 1.555,0.295 0.353,-0.048 0.67,-0.246 0.951,-0.598 0.377,-0.47 0.5,-0.907 0.371,-1.314 -0.129,-0.405 -0.537,-0.882 -1.223,-1.43 l -8.861,-7.086 z m 32.537,29.701 -34.334,-27.453 -8.945,11.186 -0.524,0.654 c -0.486,0.608 -0.746,1.167 -0.783,1.677 -0.037,0.51 0.154,0.933 0.572,1.267 0.686,0.55 1.41,0.574 2.166,0.074 0.629,-0.408 1.002,-0.643 1.118,-0.702 0.117,-0.059 0.291,-0.079 0.519,-0.06 0.432,0.013 0.939,0.253 1.525,0.722 l 25.17,20.127 c 0.588,0.471 0.936,0.914 1.043,1.331 0.071,0.223 0.09,0.397 0.059,0.523 -0.031,0.127 -0.178,0.542 -0.44,1.245 -0.318,0.85 -0.136,1.549 0.555,2.101 0.42,0.336 0.873,0.429 1.365,0.282 0.491,-0.148 0.977,-0.526 1.463,-1.134 l 0.524,-0.653 z"
           style="fill:#ed1c24;fill-opacity:1;fill-rule:nonzero;stroke:none"
           id="path4076"
           inkscape:connector-curvature="0" /><path
           d="m 553.884,409.584 -12.045,-5.291 c -0.576,-0.252 -1.115,-0.294 -1.611,-0.126 -0.502,0.168 -0.864,0.508 -1.088,1.02 -0.217,0.492 -0.233,0.971 -0.051,1.438 0.182,0.468 0.537,0.876 1.064,1.226 l 1.67,1.086 c 1.699,1.099 3.035,2.367 4.002,3.801 0.592,0.894 0.955,1.911 1.088,3.05 l 3.559,1.563 z m -14.694,33.449 3.413,-7.766 -3.557,-1.563 c -0.94,0.692 -1.934,1.111 -2.984,1.261 -1.711,0.258 -3.547,0.133 -5.508,-0.375 l -1.93,-0.496 c -0.613,-0.153 -1.154,-0.138 -1.623,0.044 -0.467,0.183 -0.807,0.52 -1.023,1.012 -0.225,0.511 -0.231,1.008 -0.016,1.49 0.215,0.481 0.607,0.849 1.184,1.101 z m 10.202,-23.226 -34.631,-15.213 c -0.768,-0.337 -1.254,-0.726 -1.459,-1.168 -0.127,-0.242 -0.186,-0.443 -0.176,-0.602 0.012,-0.159 0.088,-0.664 0.227,-1.517 0.197,-1.036 -0.137,-1.744 -1.002,-2.124 -0.512,-0.225 -1.038,-0.151 -1.577,0.22 -0.4,0.269 -0.793,0.846 -1.181,1.728 l -0.426,0.971 -5.77,13.134 -0.423,0.969 c -0.381,0.862 -0.534,1.571 -0.461,2.128 0.072,0.558 0.373,0.953 0.904,1.186 0.865,0.38 1.613,0.148 2.242,-0.698 0.531,-0.675 0.854,-1.072 0.961,-1.188 0.111,-0.115 0.293,-0.198 0.551,-0.249 0.463,-0.147 1.078,-0.051 1.846,0.285 l 34.632,15.214 z"
           style="fill:#ed1c24;fill-opacity:1;fill-rule:nonzero;stroke:none"
           id="path4078"
           inkscape:connector-curvature="0" /><path
           d="m 322.614,147.76 c -76.498,0 -143.703,51.646 -163.429,125.597 l -9.104,-2.429 c 20.824,-78.068 91.772,-132.592 172.533,-132.592 80.76,0 151.711,54.524 172.535,132.592 l -9.103,2.429 C 466.317,199.406 399.114,147.76 322.614,147.76"
           style="fill:#ed1c24;fill-opacity:1;fill-rule:nonzero;stroke:none"
           id="path4080"
           inkscape:connector-curvature="0" /><path
           d="m 555.935,230.248 -3.555,-7.688 -3.529,1.631 c -0.104,1.161 -0.448,2.183 -1.034,3.068 -0.937,1.451 -2.246,2.742 -3.923,3.873 l -1.649,1.116 c -0.521,0.359 -0.869,0.774 -1.041,1.244 -0.174,0.471 -0.146,0.949 0.08,1.438 0.233,0.506 0.602,0.839 1.104,0.996 0.5,0.16 1.035,0.107 1.603,-0.156 z m -15.325,-33.146 -11.943,5.521 c -0.566,0.264 -0.953,0.637 -1.158,1.121 -0.203,0.485 -0.19,0.982 0.047,1.487 0.224,0.488 0.572,0.818 1.041,0.991 0.47,0.174 1.013,0.176 1.623,0.012 l 1.92,-0.531 c 1.947,-0.546 3.777,-0.707 5.492,-0.481 1.062,0.147 2.062,0.549 3.004,1.201 l 3.531,-1.632 z m 4.678,10.113 -34.344,15.876 c -0.761,0.351 -1.375,0.458 -1.841,0.317 -0.268,-0.066 -0.457,-0.156 -0.569,-0.27 -0.113,-0.115 -0.443,-0.508 -0.99,-1.181 -0.648,-0.838 -1.4,-1.06 -2.26,-0.664 -0.508,0.235 -0.799,0.679 -0.877,1.331 -0.06,0.48 0.112,1.16 0.518,2.039 l 0.447,0.969 6.031,13.047 0.448,0.966 c 0.396,0.86 0.828,1.448 1.295,1.766 0.466,0.317 0.962,0.355 1.49,0.11 0.857,-0.395 1.176,-1.112 0.959,-2.15 -0.158,-0.85 -0.244,-1.356 -0.258,-1.516 -0.014,-0.159 0.045,-0.351 0.176,-0.578 0.195,-0.447 0.674,-0.845 1.435,-1.197 l 34.342,-15.876 z"
           style="fill:#ed1c24;fill-opacity:1;fill-rule:nonzero;stroke:none"
           id="path4082"
           inkscape:connector-curvature="0" /><path
           d="m 511.366,160.381 c 0.414,1.086 0.516,2.015 0.301,2.789 -0.215,0.774 -0.813,1.577 -1.793,2.41 l -21.955,18.629 c -1.441,1.223 -2.623,1.888 -3.547,1.995 -0.758,0.106 -1.588,-0.162 -2.496,-0.801 l -2.703,2.294 c 3.379,3.385 7.33,5.272 11.853,5.657 5.883,0.498 11.666,-1.663 17.346,-6.483 2.848,-2.417 5.065,-5.022 6.65,-7.816 1.584,-2.795 2.475,-5.701 2.678,-8.715 0.158,-2.303 -0.062,-4.453 -0.66,-6.451 -0.6,-1.999 -1.605,-3.918 -3.025,-5.756 z m -1.709,-2.014 2.651,-2.247 c -1.58,-1.696 -3.311,-3.004 -5.19,-3.926 -1.881,-0.921 -3.969,-1.49 -6.264,-1.707 -6.085,-0.57 -12.027,1.605 -17.82,6.522 -5.68,4.819 -8.758,10.17 -9.228,16.051 -0.375,4.536 0.843,8.743 3.658,12.624 l 2.703,-2.294 c -0.26,-0.505 -0.412,-0.941 -0.455,-1.308 -0.043,-0.367 0,-0.772 0.129,-1.218 0.299,-1.009 1.131,-2.089 2.488,-3.242 l 21.957,-18.63 c 0.865,-0.735 1.676,-1.171 2.43,-1.308 0.508,-0.096 0.974,-0.094 1.396,0.007 0.424,0.101 0.94,0.328 1.545,0.676"
           style="fill:#ed1c24;fill-opacity:1;fill-rule:nonzero;stroke:none"
           id="path4084"
           inkscape:connector-curvature="0" /><path
           d="m 444.839,133.647 1.918,-2.861 c -0.641,-0.687 -1.051,-1.233 -1.227,-1.637 -0.179,-0.404 -0.244,-0.887 -0.201,-1.452 0.096,-0.944 0.537,-2.004 1.326,-3.181 l 5.731,-8.55 c 0.562,-0.838 1.045,-1.421 1.443,-1.747 0.4,-0.326 0.9,-0.533 1.502,-0.622 0.852,-0.153 1.758,0.001 2.715,0.463 l 1.935,-2.89 c -3.675,-2.463 -6.619,-3.935 -8.834,-4.411 -2.552,-0.55 -4.976,-0.39 -7.265,0.479 -2.33,0.892 -4.319,2.568 -5.967,5.029 -1.842,2.745 -2.74,5.396 -2.701,7.955 0.053,2.541 0.89,4.95 2.514,7.226 1.357,1.865 3.726,3.933 7.111,6.199 m 17.371,-20.984 -21.063,31.421 c -0.464,0.696 -0.933,1.104 -1.406,1.229 -0.262,0.083 -0.47,0.104 -0.625,0.064 -0.156,-0.04 -0.642,-0.205 -1.461,-0.494 -0.99,-0.38 -1.75,-0.178 -2.277,0.606 -0.309,0.464 -0.326,0.994 -0.053,1.591 0.197,0.443 0.69,0.928 1.479,1.456 l 0.914,0.612 11.929,7.998 0.698,0.467 c 0.638,0.427 1.211,0.636 1.717,0.627 0.505,-0.009 0.91,-0.236 1.209,-0.682 0.49,-0.731 0.457,-1.451 -0.098,-2.159 -0.453,-0.588 -0.715,-0.938 -0.783,-1.047 -0.069,-0.111 -0.102,-0.282 -0.1,-0.514 -0.021,-0.427 0.178,-0.953 0.594,-1.578 l 17.945,-26.772 c 0.418,-0.623 0.828,-1.007 1.233,-1.148 0.212,-0.089 0.384,-0.122 0.511,-0.102 0.129,0.022 0.551,0.129 1.268,0.326 0.865,0.245 1.543,0.001 2.031,-0.729 0.301,-0.445 0.356,-0.904 0.172,-1.376 -0.184,-0.473 -0.596,-0.922 -1.232,-1.35 l -0.696,-0.467 z"
           style="fill:#ed1c24;fill-opacity:1;fill-rule:nonzero;stroke:none"
           id="path4086"
           inkscape:connector-curvature="0" /><path
           d="m 366.401,116.028 -0.697,3.605 c 1.727,0.334 3.731,0.207 6.008,-0.383 0.85,-0.208 1.432,-0.336 1.746,-0.384 0.316,-0.05 0.611,-0.048 0.885,0.005 0.422,0.082 0.724,0.212 0.91,0.389 0.182,0.178 0.455,0.583 0.812,1.218 0.289,0.535 0.657,0.844 1.098,0.93 1.18,0.229 1.945,-0.557 2.293,-2.36 l 2.231,-11.514 c 0.113,-0.594 0.042,-1.13 -0.215,-1.61 -0.258,-0.479 -0.637,-0.778 -1.137,-0.896 -0.461,-0.11 -0.85,-0.049 -1.168,0.185 -0.318,0.234 -0.643,0.691 -0.971,1.372 -0.836,1.723 -1.865,3.286 -3.088,4.69 -1.222,1.407 -2.55,2.54 -3.984,3.401 -1.465,0.898 -3.039,1.35 -4.723,1.352 m 3.157,-38.408 0.673,-3.47 c -1.283,-0.161 -2.412,-0.212 -3.386,-0.153 -0.975,0.06 -2.385,0.277 -4.231,0.653 -0.455,0.084 -0.818,0.101 -1.093,0.048 -0.401,-0.078 -0.67,-0.272 -0.807,-0.584 l -0.518,-1.052 c -0.248,-0.53 -0.615,-0.841 -1.101,-0.935 -0.569,-0.11 -1.028,0.017 -1.369,0.381 -0.346,0.363 -0.604,0.992 -0.778,1.887 l -2.015,10.409 c -0.116,0.606 -0.037,1.136 0.234,1.591 0.275,0.455 0.687,0.735 1.234,0.84 0.422,0.082 0.84,0.022 1.25,-0.182 0.223,-0.131 0.416,-0.307 0.578,-0.527 0.163,-0.218 0.352,-0.6 0.569,-1.148 0.431,-0.984 1.037,-1.968 1.818,-2.95 0.781,-0.982 1.635,-1.83 2.561,-2.544 1.849,-1.407 3.976,-2.162 6.381,-2.264 m 3.189,-3.146 -0.701,3.628 c 1.238,0.611 2.127,1.357 2.668,2.237 0.539,0.881 0.703,1.87 0.49,2.965 -0.203,1.053 -0.664,1.92 -1.387,2.6 -0.722,0.681 -1.795,1.254 -3.216,1.722 -0.979,0.313 -3.157,0.854 -6.538,1.62 -2.054,0.455 -3.666,0.914 -4.837,1.377 -1.17,0.462 -2.315,1.098 -3.432,1.908 -2.992,2.133 -4.834,5 -5.533,8.604 -0.526,2.717 -0.332,5.335 0.58,7.849 0.912,2.516 2.422,4.645 4.533,6.387 1.133,0.919 2.414,1.719 3.846,2.4 1.431,0.681 2.797,1.149 4.103,1.401 l 0.698,-3.604 c -1.75,-0.797 -2.954,-1.671 -3.612,-2.618 -0.66,-0.946 -0.859,-2.094 -0.597,-3.442 0.273,-1.412 1.144,-2.532 2.615,-3.362 0.978,-0.533 2.744,-1.087 5.302,-1.664 2.809,-0.635 4.741,-1.104 5.793,-1.402 1.051,-0.3 2.082,-0.69 3.092,-1.172 4.504,-2.056 7.211,-5.433 8.121,-10.133 0.465,-2.4 0.399,-4.713 -0.197,-6.937 -0.596,-2.226 -1.66,-4.131 -3.187,-5.717 -2.129,-2.203 -4.997,-3.754 -8.604,-4.647"
           style="fill:#ed1c24;fill-opacity:1;fill-rule:nonzero;stroke:none"
           id="path4088"
           inkscape:connector-curvature="0" /><path
           d="m 308.167,71.226 2.818,43.863 14.313,-0.92 0.836,-0.054 c 0.769,-0.049 1.353,-0.231 1.752,-0.548 0.396,-0.316 0.578,-0.742 0.545,-1.277 -0.059,-0.879 -0.524,-1.431 -1.395,-1.654 -0.721,-0.19 -1.142,-0.308 -1.264,-0.355 -0.121,-0.045 -0.251,-0.16 -0.392,-0.345 -0.279,-0.327 -0.442,-0.865 -0.49,-1.615 L 322.823,76.15 c -0.047,-0.749 0.045,-1.302 0.281,-1.662 0.116,-0.201 0.229,-0.331 0.344,-0.392 0.115,-0.061 0.518,-0.232 1.207,-0.513 0.838,-0.333 1.229,-0.938 1.172,-1.816 -0.035,-0.536 -0.267,-0.934 -0.703,-1.196 -0.436,-0.26 -1.037,-0.368 -1.807,-0.319 l -0.836,0.054 z m -1.171,23.557 -0.239,-3.728 c -1.283,-0.519 -2.248,-1.112 -2.894,-1.778 -0.647,-0.667 -1.147,-1.579 -1.501,-2.736 -0.225,-0.802 -0.487,-1.348 -0.784,-1.64 -0.3,-0.292 -0.707,-0.422 -1.223,-0.388 -0.687,0.044 -1.141,0.34 -1.364,0.888 -0.132,0.287 -0.168,0.919 -0.106,1.899 l 0.788,12.248 c 0.064,1.003 0.221,1.69 0.471,2.059 0.251,0.371 0.676,0.536 1.277,0.497 0.494,-0.032 0.871,-0.206 1.13,-0.524 0.26,-0.317 0.453,-0.835 0.579,-1.552 0.27,-1.5 0.718,-2.668 1.344,-3.503 0.625,-0.835 1.466,-1.417 2.522,-1.742 m 1.105,20.491 -0.224,-3.469 c -1.406,-0.126 -2.576,-0.352 -3.511,-0.679 -0.935,-0.327 -1.89,-0.857 -2.861,-1.591 -0.971,-0.733 -1.757,-1.506 -2.359,-2.316 -0.6,-0.81 -1.192,-1.896 -1.774,-3.257 -0.281,-0.671 -0.556,-1.121 -0.829,-1.35 -0.272,-0.23 -0.634,-0.331 -1.084,-0.301 -0.599,0.039 -1.005,0.242 -1.218,0.611 -0.213,0.368 -0.292,0.99 -0.236,1.869 l 0.728,11.341 z m -2.783,-43.866 -12.943,0.831 0.728,11.365 c 0.044,0.665 0.203,1.137 0.479,1.421 0.277,0.284 0.693,0.409 1.249,0.371 0.472,-0.029 0.808,-0.148 1.01,-0.354 0.202,-0.206 0.381,-0.615 0.534,-1.228 0.655,-2.535 1.725,-4.505 3.216,-5.913 1.49,-1.407 3.48,-2.319 5.968,-2.737 z"
           style="fill:#ed1c24;fill-opacity:1;fill-rule:nonzero;stroke:none"
           id="path4090"
           inkscape:connector-curvature="0" /><path
           d="m 245.058,83.017 1.244,3.689 c 1.256,-0.221 2.324,0.009 3.205,0.685 0.882,0.677 1.597,1.828 2.145,3.455 l 8.501,25.215 0.442,1.312 c 0.159,0.468 0.23,0.994 0.211,1.578 -0.016,0.583 -0.116,1.11 -0.296,1.579 -0.185,0.515 -0.432,0.92 -0.737,1.218 -0.307,0.295 -0.762,0.579 -1.37,0.852 l 1.257,3.724 c 3.945,-1.33 7.025,-3.513 9.24,-6.55 1.951,-2.675 3.063,-5.764 3.331,-9.265 0.269,-3.502 -0.303,-7.351 -1.717,-11.543 -1.037,-3.074 -2.425,-5.796 -4.163,-8.168 -1.738,-2.372 -3.742,-4.264 -6.008,-5.677 -2.293,-1.425 -4.774,-2.356 -7.447,-2.793 -2.672,-0.436 -5.057,-0.301 -7.15,0.405 z m 12.095,44.152 -1.255,-3.725 c -1.629,0.413 -3.499,0.376 -5.613,-0.112 -1.135,-0.274 -2.235,-0.78 -3.3,-1.519 -1.066,-0.741 -1.98,-1.636 -2.743,-2.693 -0.423,-0.582 -0.819,-0.965 -1.186,-1.146 -0.367,-0.182 -0.775,-0.197 -1.222,-0.046 -0.489,0.165 -0.834,0.485 -1.036,0.961 -0.202,0.476 -0.211,0.988 -0.025,1.538 0.308,0.915 1.032,1.904 2.174,2.969 1.14,1.065 2.445,1.961 3.915,2.689 1.796,0.89 3.511,1.422 5.143,1.596 1.633,0.173 3.351,0.003 5.148,-0.512 m -13.242,-39.624 -1.243,-3.69 c -0.943,0.499 -1.695,0.945 -2.254,1.335 -0.559,0.393 -1.553,1.157 -2.985,2.294 -0.915,0.716 -1.546,1.131 -1.891,1.248 -0.59,0.2 -1.127,0.086 -1.611,-0.341 l -0.645,-0.6 c -0.408,-0.408 -0.95,-0.498 -1.622,-0.271 -0.549,0.186 -0.916,0.492 -1.102,0.918 -0.184,0.427 -0.169,0.958 0.045,1.591 l 4.276,12.689 c 0.276,0.817 0.66,1.347 1.15,1.591 0.49,0.245 0.969,0.289 1.438,0.129 0.488,-0.164 0.827,-0.453 1.015,-0.868 0.189,-0.415 0.256,-1.009 0.198,-1.784 -0.114,-1.752 -0.122,-3.154 -0.023,-4.207 0.224,-2.229 0.692,-4.132 1.407,-5.711 0.478,-1.067 1.021,-1.948 1.627,-2.639 0.605,-0.692 1.346,-1.252 2.22,-1.684"
           style="fill:#ed1c24;fill-opacity:1;fill-rule:nonzero;stroke:none"
           id="path4092"
           inkscape:connector-curvature="0" /><path
           d="m 186.942,113 21.61,31.056 c 0.479,0.687 0.691,1.271 0.636,1.755 -0.018,0.273 -0.073,0.474 -0.164,0.604 -0.092,0.13 -0.419,0.521 -0.98,1.173 -0.708,0.778 -0.79,1.558 -0.251,2.332 0.319,0.458 0.805,0.671 1.457,0.636 0.48,-0.021 1.107,-0.3 1.877,-0.836 l 0.895,-0.623 11.792,-8.206 0.688,-0.478 c 0.64,-0.445 1.049,-0.907 1.23,-1.387 0.181,-0.478 0.119,-0.937 -0.19,-1.378 -0.501,-0.723 -1.187,-0.953 -2.056,-0.688 -0.719,0.213 -1.145,0.331 -1.271,0.355 -0.129,0.024 -0.3,-0.006 -0.518,-0.09 -0.409,-0.135 -0.828,-0.511 -1.258,-1.128 l -18.413,-26.462 c -0.43,-0.615 -0.635,-1.14 -0.618,-1.568 -0.004,-0.232 0.027,-0.405 0.094,-0.516 0.067,-0.113 0.326,-0.469 0.777,-1.07 0.549,-0.721 0.573,-1.443 0.07,-2.165 -0.306,-0.44 -0.714,-0.658 -1.226,-0.655 -0.511,0.004 -1.088,0.228 -1.728,0.672 l -0.686,0.48 z m 4.704,24.02 c -1.452,1.376 -2.51,2.518 -3.175,3.426 -0.665,0.908 -1.174,1.864 -1.524,2.866 -0.361,1.062 -0.476,2.11 -0.346,3.145 0.13,1.034 0.489,1.975 1.078,2.82 l 3.809,5.474 c 0.389,0.561 0.398,0.969 0.029,1.227 -0.141,0.097 -0.287,0.142 -0.439,0.129 -0.152,-0.011 -0.395,-0.07 -0.731,-0.175 -0.855,-0.292 -1.513,-0.278 -1.971,0.041 -0.299,0.208 -0.488,0.575 -0.566,1.101 -0.079,0.526 -0.007,0.948 0.213,1.266 0.382,0.547 1.106,1.031 2.172,1.455 1.067,0.423 2.202,0.675 3.409,0.751 1.13,0.08 2.207,-0.048 3.232,-0.381 1.025,-0.333 2.111,-0.899 3.257,-1.697 2.329,-1.621 3.684,-3.551 4.063,-5.792 0.376,-2.241 -0.263,-4.553 -1.921,-6.935 l -3.09,-4.441 c -0.687,-0.988 -1.077,-1.568 -1.169,-1.738 -0.403,-0.766 -0.582,-1.545 -0.533,-2.337 0.081,-0.972 0.559,-1.841 1.433,-2.607 l -1.967,-2.83 c -1.047,0.52 -1.897,0.744 -2.546,0.673 -0.571,-0.073 -1.065,-0.267 -1.479,-0.581 -0.414,-0.314 -0.896,-0.867 -1.449,-1.66 l -4.867,-6.994 c -0.773,-1.111 -1.134,-2.089 -1.081,-2.936 0.05,-0.847 0.531,-1.82 1.438,-2.923 l -2.042,-2.934 -0.689,0.479 c -1.956,1.361 -3.572,2.592 -4.85,3.689 -1.911,1.617 -3.27,3.556 -4.076,5.817 -1.172,3.246 -0.702,6.383 1.407,9.412 1.728,2.483 3.92,3.979 6.573,4.484 1.118,0.216 2.261,0.232 3.427,0.047 1.166,-0.184 2.824,-0.632 4.971,-1.341"
           style="fill:#ed1c24;fill-opacity:1;fill-rule:nonzero;stroke:none"
           id="path4094"
           inkscape:connector-curvature="0" /><path
           d="m 165.746,192.229 -2.699,-2.195 c -1.046,0.945 -2.005,1.65 -2.882,2.112 -0.874,0.463 -1.911,0.802 -3.11,1.016 -1.198,0.214 -2.299,0.266 -3.302,0.154 -1.003,-0.111 -2.204,-0.416 -3.598,-0.915 -0.68,-0.25 -1.2,-0.353 -1.552,-0.309 -0.355,0.043 -0.674,0.24 -0.958,0.589 -0.379,0.465 -0.504,0.902 -0.379,1.309 0.126,0.406 0.531,0.888 1.213,1.444 l 8.823,7.176 z m -15.77,-13.131 -2.9,-2.359 c -1.254,0.586 -2.345,0.889 -3.275,0.909 -0.929,0.019 -1.942,-0.237 -3.035,-0.766 -0.742,-0.382 -1.323,-0.563 -1.74,-0.543 -0.418,0.019 -0.79,0.23 -1.116,0.63 -0.433,0.533 -0.523,1.069 -0.268,1.608 0.122,0.294 0.567,0.754 1.335,1.379 l 9.523,7.745 c 0.779,0.636 1.391,0.987 1.834,1.057 0.441,0.068 0.852,-0.131 1.231,-0.599 0.31,-0.383 0.438,-0.778 0.382,-1.183 -0.056,-0.407 -0.305,-0.9 -0.746,-1.48 -0.918,-1.218 -1.472,-2.34 -1.66,-3.365 -0.189,-1.027 -0.044,-2.038 0.435,-3.033 m -16.485,-16.861 34.093,27.734 9.056,-11.134 0.528,-0.649 c 0.49,-0.6 0.753,-1.156 0.792,-1.662 0.04,-0.508 -0.148,-0.932 -0.564,-1.271 -0.683,-0.556 -1.406,-0.589 -2.166,-0.098 -0.629,0.4 -1.001,0.63 -1.118,0.688 -0.116,0.057 -0.291,0.076 -0.521,0.053 -0.429,-0.016 -0.935,-0.261 -1.518,-0.736 L 147.065,154.82 c -0.582,-0.473 -0.923,-0.918 -1.028,-1.335 -0.066,-0.22 -0.083,-0.394 -0.051,-0.52 0.034,-0.127 0.181,-0.538 0.445,-1.236 0.326,-0.843 0.15,-1.541 -0.533,-2.095 -0.415,-0.338 -0.865,-0.436 -1.356,-0.293 -0.488,0.142 -0.976,0.513 -1.465,1.113 l -0.528,0.65 z m -1.808,2.223 -8.178,10.052 8.827,7.179 c 0.518,0.423 0.977,0.63 1.374,0.622 0.397,-0.01 0.771,-0.231 1.123,-0.663 0.296,-0.366 0.438,-0.692 0.424,-0.98 -0.015,-0.289 -0.195,-0.697 -0.538,-1.226 -1.416,-2.204 -2.136,-4.329 -2.157,-6.377 -0.021,-2.047 0.659,-4.127 2.042,-6.235 z"
           style="fill:#ed1c24;fill-opacity:1;fill-rule:nonzero;stroke:none"
           id="path4096"
           inkscape:connector-curvature="0" /><path
           d="m 107.815,199.56 -3.464,7.717 3.546,1.593 c 0.944,-0.682 1.939,-1.092 2.992,-1.231 1.709,-0.243 3.543,-0.102 5.497,0.424 l 1.926,0.51 c 0.612,0.158 1.152,0.149 1.621,-0.029 0.467,-0.178 0.812,-0.511 1.031,-1 0.229,-0.509 0.238,-1.004 0.028,-1.485 -0.209,-0.483 -0.6,-0.853 -1.172,-1.109 z m -10.378,23.116 34.51,15.493 c 0.764,0.343 1.246,0.735 1.449,1.177 0.126,0.245 0.183,0.445 0.17,0.603 -0.012,0.159 -0.092,0.662 -0.237,1.51 -0.204,1.033 0.126,1.742 0.987,2.13 0.509,0.227 1.035,0.159 1.575,-0.206 0.402,-0.266 0.8,-0.836 1.193,-1.713 l 0.434,-0.965 5.876,-13.088 0.437,-0.972 c 0.387,-0.865 0.548,-1.579 0.482,-2.139 -0.066,-0.562 -0.364,-0.96 -0.893,-1.198 -0.862,-0.386 -1.611,-0.158 -2.251,0.689 -0.541,0.679 -0.864,1.076 -0.977,1.191 -0.11,0.117 -0.294,0.198 -0.552,0.249 -0.464,0.144 -1.078,0.044 -1.844,-0.297 l -34.509,-15.494 z m -4.577,10.194 12.005,5.389 c 0.572,0.257 1.108,0.304 1.608,0.14 0.499,-0.164 0.864,-0.5 1.091,-1.008 0.221,-0.49 0.241,-0.967 0.062,-1.435 -0.178,-0.469 -0.529,-0.879 -1.055,-1.232 l -1.661,-1.098 c -1.692,-1.112 -3.015,-2.389 -3.971,-3.828 -0.586,-0.898 -0.941,-1.915 -1.066,-3.052 l -3.548,-1.594 z"
           style="fill:#ed1c24;fill-opacity:1;fill-rule:nonzero;stroke:none"
           id="path4098"
           inkscape:connector-curvature="0" /><path
           d="m 61.157,293.474 v 4.689 c 1.651,0.154 3.387,0.912 5.208,2.274 0.974,0.744 1.842,1.741 2.603,2.988 0.762,1.246 1.334,2.613 1.716,4.104 0.212,0.822 0.459,1.407 0.745,1.753 0.287,0.347 0.662,0.522 1.128,0.522 0.507,0 0.93,-0.233 1.27,-0.695 0.339,-0.462 0.508,-1.04 0.508,-1.731 0,-1.156 -0.365,-2.557 -1.095,-4.199 -0.732,-1.643 -1.667,-3.158 -2.81,-4.543 -1.398,-1.697 -2.832,-2.953 -4.304,-3.776 -1.471,-0.821 -3.128,-1.283 -4.969,-1.386 m -0.141,49.829 v 4.639 c 1.039,-0.202 1.884,-0.416 2.531,-0.643 0.648,-0.227 1.822,-0.707 3.52,-1.438 1.082,-0.454 1.805,-0.68 2.165,-0.68 0.616,0 1.083,0.329 1.402,0.989 l 0.414,0.915 c 0.255,0.609 0.733,0.915 1.433,0.915 0.573,0 1.013,-0.208 1.321,-0.619 0.309,-0.413 0.463,-1.019 0.463,-1.818 v -15.952 c 0,-1.016 -0.192,-1.753 -0.574,-2.208 -0.382,-0.459 -0.817,-0.686 -1.305,-0.686 -0.511,0 -0.919,0.196 -1.226,0.593 -0.308,0.396 -0.557,1.041 -0.749,1.935 -0.446,2.017 -0.881,3.601 -1.306,4.75 -0.913,2.425 -1.954,4.392 -3.121,5.899 -0.786,1.021 -1.571,1.806 -2.356,2.356 -0.786,0.548 -1.656,0.899 -2.612,1.053 m -2.467,4.678 v -4.639 c -1.232,-0.231 -2.15,-0.895 -2.756,-1.993 -0.605,-1.099 -0.908,-2.67 -0.908,-4.713 v -31.744 -1.654 c 0,-0.591 0.099,-1.212 0.297,-1.866 0.198,-0.653 0.454,-1.211 0.768,-1.671 0.333,-0.513 0.688,-0.878 1.064,-1.097 0.376,-0.217 0.888,-0.364 1.535,-0.441 v -4.689 c -4.102,0 -7.665,1.295 -10.688,3.884 -2.665,2.281 -4.675,5.35 -6.028,9.207 -1.354,3.858 -2.029,8.426 -2.029,13.707 0,3.87 0.438,7.477 1.316,10.823 0.877,3.345 2.151,6.248 3.821,8.709 1.692,2.486 3.717,4.485 6.076,5.998 2.357,1.511 4.624,2.268 6.802,2.268 z"
           style="fill:#ed1c24;fill-opacity:1;fill-rule:nonzero;stroke:none"
           id="path4100"
           inkscape:connector-curvature="0" /><path
           d="m 108.232,343.839 v 4.142 c 2.294,-0.128 4.394,-0.692 6.297,-1.69 1.903,-0.999 3.673,-2.459 5.31,-4.38 4.336,-5.096 6.504,-12.176 6.504,-21.24 0,-8.887 -2.073,-15.815 -6.218,-20.781 -3.189,-3.842 -7.153,-5.98 -11.893,-6.416 v 4.228 c 0.558,0.152 0.993,0.351 1.305,0.596 0.311,0.242 0.596,0.596 0.855,1.056 0.579,1.051 0.87,2.641 0.87,4.768 v 34.354 c 0,1.353 -0.194,2.425 -0.58,3.218 -0.258,0.535 -0.564,0.957 -0.919,1.264 -0.354,0.306 -0.865,0.6 -1.531,0.881 m -2.608,0 c -1.057,-0.46 -1.802,-1.086 -2.237,-1.877 -0.435,-0.792 -0.652,-1.954 -0.652,-3.486 v -34.354 c 0,-2.256 0.247,-3.845 0.745,-4.768 0.394,-0.768 1.108,-1.32 2.144,-1.652 v -4.228 c -4.69,0.462 -8.621,2.599 -11.79,6.416 -4.12,4.966 -6.18,11.894 -6.18,20.781 0,4.455 0.544,8.48 1.632,12.079 1.088,3.598 2.699,6.652 4.834,9.161 1.626,1.921 3.379,3.381 5.26,4.38 1.88,0.998 3.962,1.562 6.244,1.69 z"
           style="fill:#ed1c24;fill-opacity:1;fill-rule:nonzero;stroke:none"
           id="path4102"
           inkscape:connector-curvature="0" /><path
           d="m 174.901,317.616 -3.382,6.883 v 10.644 c 0,2.145 -0.261,3.786 -0.782,4.923 -0.522,1.136 -1.442,2.113 -2.759,2.93 -0.448,0.255 -0.756,0.529 -0.926,0.823 -0.17,0.294 -0.255,0.671 -0.255,1.131 0,0.69 0.186,1.194 0.559,1.513 0.373,0.32 0.977,0.479 1.81,0.479 h 7.961 c 1.067,0 1.768,-0.205 2.103,-0.613 0.355,-0.409 0.534,-0.894 0.534,-1.455 0,-0.537 -0.1,-0.939 -0.301,-1.207 -0.2,-0.269 -0.678,-0.633 -1.436,-1.092 -1.116,-0.69 -1.957,-1.751 -2.526,-3.18 -0.4,-1.048 -0.6,-2.465 -0.6,-4.252 z m -16.914,29.326 16.914,-35.476 v -16.955 h -8.68 l -21.587,44.942 c -0.467,0.972 -0.847,1.65 -1.145,2.034 -0.297,0.385 -0.678,0.666 -1.144,0.846 l -1.208,0.537 c -0.318,0.128 -0.573,0.359 -0.763,0.692 -0.191,0.333 -0.286,0.705 -0.286,1.114 0,0.435 0.095,0.838 0.285,1.21 0.19,0.371 0.445,0.634 0.763,0.788 0.36,0.178 1.335,0.268 2.924,0.268 z m -13.319,-13.447 3.383,-6.767 v -20.606 c 0,-1.795 0.247,-3.268 0.742,-4.422 0.495,-1.154 1.279,-2.102 2.353,-2.845 l 0.946,-0.653 c 0.548,-0.387 0.822,-0.962 0.822,-1.73 0,-0.59 -0.2,-1.077 -0.597,-1.461 -0.335,-0.334 -1.026,-0.5 -2.072,-0.5 h -7.357 c -1.914,0 -2.871,0.666 -2.871,2 0,0.459 0.101,0.825 0.301,1.093 0.2,0.27 0.638,0.635 1.312,1.097 2.025,1.359 3.038,3.832 3.038,7.421 z"
           style="fill:#ed1c24;fill-opacity:1;fill-rule:nonzero;stroke:none"
           id="path4104"
           inkscape:connector-curvature="0" /><path
           d="m 213.685,346.942 h 12.825 v -13.371 c 0,-0.881 -0.127,-1.515 -0.381,-1.903 -0.254,-0.388 -0.669,-0.582 -1.242,-0.582 -0.425,0 -0.757,0.134 -1.002,0.403 -0.244,0.269 -0.451,0.723 -0.621,1.365 -0.319,1.254 -0.733,2.406 -1.241,3.457 -0.509,1.05 -1.082,1.947 -1.719,2.69 -0.869,1.024 -1.825,1.806 -2.864,2.344 -1.04,0.538 -2.291,0.91 -3.755,1.114 z m -0.142,-27.941 v 4.459 c 1.245,0.721 2.159,1.498 2.738,2.334 0.582,0.834 1.009,1.973 1.284,3.412 0.167,0.977 0.39,1.652 0.663,2.025 0.275,0.373 0.665,0.56 1.172,0.56 0.676,0 1.141,-0.324 1.393,-0.97 0.148,-0.336 0.221,-1.097 0.221,-2.285 v -14.648 c 0,-1.197 -0.11,-2.024 -0.333,-2.482 -0.223,-0.458 -0.628,-0.686 -1.218,-0.686 -0.486,0 -0.865,0.177 -1.14,0.535 -0.274,0.358 -0.496,0.96 -0.663,1.803 -0.381,1.764 -0.899,3.119 -1.553,4.064 -0.654,0.945 -1.509,1.572 -2.564,1.879 m -2.677,27.941 v -45.127 c 0,-1 0.158,-1.717 0.477,-2.152 0.17,-0.257 0.328,-0.418 0.479,-0.481 0.147,-0.064 0.636,-0.225 1.464,-0.481 1.017,-0.282 1.526,-0.987 1.526,-2.115 0,-0.666 -0.275,-1.204 -0.826,-1.614 -0.404,-0.309 -1.072,-0.461 -2.006,-0.461 h -1.081 -14.158 -0.828 c -0.763,0 -1.351,0.173 -1.765,0.518 -0.411,0.346 -0.618,0.84 -0.618,1.482 0,1.05 0.425,1.741 1.272,2.075 0.698,0.282 1.106,0.454 1.223,0.518 0.116,0.065 0.237,0.211 0.365,0.443 0.253,0.409 0.381,1.063 0.381,1.962 v 38.461 c 0,0.894 -0.128,1.545 -0.381,1.953 -0.128,0.229 -0.249,0.377 -0.365,0.441 -0.117,0.064 -0.525,0.236 -1.223,0.517 -0.847,0.332 -1.272,1.021 -1.272,2.069 0,0.639 0.207,1.13 0.618,1.475 0.414,0.345 1.002,0.517 1.765,0.517 h 0.828 z"
           style="fill:#ed1c24;fill-opacity:1;fill-rule:nonzero;stroke:none"
           id="path4106"
           inkscape:connector-curvature="0" /><path
           d="m 257.572,294.511 h -14.158 -0.828 c -0.763,0 -1.351,0.173 -1.764,0.518 -0.412,0.346 -0.618,0.84 -0.618,1.482 0,1.05 0.423,1.741 1.271,2.075 0.698,0.282 1.106,0.454 1.223,0.518 0.116,0.065 0.238,0.211 0.366,0.443 0.254,0.409 0.381,1.063 0.381,1.962 v 38.461 c 0,0.894 -0.127,1.545 -0.381,1.953 -0.128,0.229 -0.25,0.377 -0.366,0.441 -0.117,0.064 -0.525,0.236 -1.223,0.517 -0.848,0.332 -1.271,1.021 -1.271,2.069 0,0.639 0.206,1.13 0.618,1.475 0.413,0.345 1.001,0.517 1.764,0.517 h 0.828 14.158 0.827 c 0.762,0 1.35,-0.172 1.763,-0.517 0.413,-0.345 0.62,-0.836 0.62,-1.475 0,-1.048 -0.424,-1.737 -1.273,-2.069 -0.699,-0.281 -1.106,-0.453 -1.222,-0.517 -0.118,-0.064 -0.239,-0.212 -0.367,-0.441 -0.253,-0.408 -0.38,-1.059 -0.38,-1.953 v -38.461 c 0,-0.899 0.127,-1.553 0.38,-1.962 0.128,-0.232 0.249,-0.378 0.367,-0.443 0.116,-0.064 0.523,-0.236 1.222,-0.518 0.849,-0.334 1.273,-1.025 1.273,-2.075 0,-0.642 -0.207,-1.136 -0.62,-1.482 -0.413,-0.345 -1.001,-0.518 -1.763,-0.518 z"
           style="fill:#ed1c24;fill-opacity:1;fill-rule:nonzero;stroke:none"
           id="path4108"
           inkscape:connector-curvature="0" /><path
           d="m 299.626,305.497 v 30.298 c 0,1.87 -0.222,3.357 -0.667,4.459 -0.278,0.718 -0.617,1.243 -1.02,1.576 -0.402,0.332 -1.037,0.614 -1.906,0.845 v 4.267 c 1.123,0 2.076,-0.051 2.86,-0.154 2.689,-0.359 5.294,-1.741 7.815,-4.148 2.5,-2.33 4.354,-5.365 5.563,-9.103 1.248,-3.79 1.873,-7.989 1.873,-12.599 0,-5.224 -0.795,-9.865 -2.383,-13.924 -1.59,-4.059 -3.867,-7.254 -6.832,-9.584 -1.44,-1.128 -2.781,-1.896 -4.018,-2.305 -1.241,-0.409 -2.866,-0.614 -4.878,-0.614 v 4.152 c 0.889,0.281 1.51,0.537 1.86,0.768 0.351,0.23 0.652,0.589 0.905,1.076 0.318,0.562 0.535,1.195 0.653,1.9 0.116,0.703 0.175,1.735 0.175,3.09 m -6.483,41.445 v -52.431 h -14.128 -0.826 c -0.764,0 -1.352,0.173 -1.764,0.518 -0.414,0.346 -0.619,0.84 -0.619,1.482 0,1.05 0.423,1.741 1.272,2.075 0.697,0.282 1.105,0.454 1.221,0.518 0.118,0.065 0.241,0.211 0.368,0.443 0.253,0.409 0.381,1.063 0.381,1.962 v 38.461 c 0,0.894 -0.128,1.545 -0.381,1.953 -0.127,0.229 -0.25,0.377 -0.368,0.441 -0.116,0.064 -0.524,0.236 -1.221,0.517 -0.849,0.332 -1.272,1.021 -1.272,2.069 0,0.639 0.205,1.13 0.619,1.475 0.412,0.345 1,0.517 1.764,0.517 h 0.826 z"
           style="fill:#ed1c24;fill-opacity:1;fill-rule:nonzero;stroke:none"
           id="path4110"
           inkscape:connector-curvature="0" /><path
           d="m 348.05,294.511 v 4.153 c 1.381,0.255 2.521,0.614 3.424,1.075 0.902,0.462 1.808,1.166 2.722,2.115 0.914,0.95 1.641,1.93 2.182,2.944 0.541,1.012 1.057,2.35 1.545,4.017 0.234,0.821 0.476,1.377 0.732,1.672 0.254,0.296 0.604,0.444 1.051,0.444 0.596,0 1.01,-0.211 1.242,-0.635 0.235,-0.422 0.352,-1.16 0.352,-2.211 v -13.574 z m -0.071,52.431 h 12.827 v -13.563 c 0,-0.803 -0.127,-1.386 -0.383,-1.749 -0.254,-0.363 -0.658,-0.544 -1.209,-0.544 -0.467,0 -0.807,0.115 -1.018,0.346 -0.213,0.23 -0.414,0.703 -0.605,1.422 -0.807,2.97 -1.988,5.237 -3.549,6.8 -1.559,1.562 -3.58,2.497 -6.063,2.805 z m -0.07,-27.941 v 4.459 c 1.223,0.721 2.131,1.505 2.723,2.353 0.59,0.848 1.021,1.979 1.297,3.393 0.17,0.977 0.39,1.652 0.664,2.025 0.275,0.373 0.666,0.56 1.172,0.56 0.675,0 1.14,-0.324 1.392,-0.97 0.149,-0.336 0.223,-1.097 0.223,-2.285 v -14.648 c 0,-1.197 -0.111,-2.024 -0.334,-2.482 -0.221,-0.458 -0.627,-0.686 -1.219,-0.686 -0.484,0 -0.865,0.177 -1.139,0.535 -0.275,0.358 -0.496,0.96 -0.664,1.803 -0.359,1.764 -0.871,3.119 -1.537,4.064 -0.664,0.945 -1.523,1.572 -2.578,1.879 m -2.748,27.941 v -52.431 h -14.127 -0.826 c -0.764,0 -1.352,0.173 -1.766,0.518 -0.412,0.346 -0.617,0.84 -0.617,1.482 0,1.05 0.424,1.741 1.272,2.075 0.697,0.282 1.105,0.454 1.222,0.518 0.116,0.065 0.239,0.211 0.366,0.443 0.253,0.409 0.38,1.063 0.38,1.962 v 38.461 c 0,0.894 -0.127,1.545 -0.38,1.953 -0.127,0.229 -0.25,0.377 -0.366,0.441 -0.117,0.064 -0.525,0.236 -1.222,0.517 -0.848,0.332 -1.272,1.021 -1.272,2.069 0,0.639 0.205,1.13 0.617,1.475 0.414,0.345 1.002,0.517 1.766,0.517 h 0.826 z"
           style="fill:#ed1c24;fill-opacity:1;fill-rule:nonzero;stroke:none"
           id="path4112"
           inkscape:connector-curvature="0" /><path
           d="m 410.718,317.616 -3.383,6.883 v 10.644 c 0,2.145 -0.26,3.786 -0.781,4.923 -0.522,1.136 -1.442,2.113 -2.76,2.93 -0.447,0.255 -0.756,0.529 -0.924,0.823 -0.172,0.294 -0.256,0.671 -0.256,1.131 0,0.69 0.186,1.194 0.559,1.513 0.373,0.32 0.976,0.479 1.808,0.479 h 7.963 c 1.067,0 1.768,-0.205 2.102,-0.613 0.357,-0.409 0.535,-0.894 0.535,-1.455 0,-0.537 -0.1,-0.939 -0.301,-1.207 -0.201,-0.269 -0.677,-0.633 -1.435,-1.092 -1.117,-0.69 -1.959,-1.751 -2.528,-3.18 -0.4,-1.048 -0.599,-2.465 -0.599,-4.252 z m -16.914,29.326 16.914,-35.476 v -16.955 h -8.68 l -21.588,44.942 c -0.467,0.972 -0.847,1.65 -1.144,2.034 -0.297,0.385 -0.678,0.666 -1.145,0.846 l -1.207,0.537 c -0.318,0.128 -0.572,0.359 -0.764,0.692 -0.191,0.333 -0.285,0.705 -0.285,1.114 0,0.435 0.094,0.838 0.285,1.21 0.19,0.371 0.444,0.634 0.762,0.788 0.361,0.178 1.336,0.268 2.924,0.268 z m -13.319,-13.447 3.383,-6.767 v -20.606 c 0,-1.795 0.246,-3.268 0.742,-4.422 0.494,-1.154 1.278,-2.102 2.352,-2.845 l 0.947,-0.653 c 0.547,-0.387 0.822,-0.962 0.822,-1.73 0,-0.59 -0.199,-1.077 -0.597,-1.461 -0.334,-0.334 -1.026,-0.5 -2.072,-0.5 h -7.358 c -1.914,0 -2.869,0.666 -2.869,2 0,0.459 0.1,0.825 0.299,1.093 0.201,0.27 0.638,0.635 1.312,1.097 2.026,1.359 3.039,3.832 3.039,7.421 z"
           style="fill:#ed1c24;fill-opacity:1;fill-rule:nonzero;stroke:none"
           id="path4114"
           inkscape:connector-curvature="0" /><path
           d="M 464.089,346.942 V 331.23 c 0,-0.755 -0.176,-1.368 -0.526,-1.836 -0.351,-0.469 -0.802,-0.704 -1.355,-0.704 -0.531,0 -0.973,0.211 -1.322,0.636 -0.352,0.425 -0.58,1.009 -0.688,1.756 l -0.318,2.353 c -0.318,2.391 -0.936,4.461 -1.85,6.21 -0.574,1.079 -1.349,1.967 -2.328,2.662 v 4.635 z m -10.994,0 v -45.127 c 0,-1 0.16,-1.717 0.478,-2.152 0.17,-0.257 0.328,-0.418 0.477,-0.481 0.148,-0.064 0.637,-0.225 1.465,-0.481 1.017,-0.282 1.527,-0.987 1.527,-2.115 0,-0.666 -0.275,-1.204 -0.826,-1.614 -0.404,-0.309 -1.084,-0.461 -2.037,-0.461 h -1.051 -14.158 -1.061 c -0.941,0 -1.652,0.173 -2.133,0.518 -0.482,0.346 -0.722,0.866 -0.722,1.557 0,1.128 0.513,1.833 1.541,2.115 0.834,0.256 1.326,0.417 1.476,0.481 0.149,0.063 0.299,0.224 0.45,0.481 0.32,0.435 0.48,1.152 0.48,2.152 v 45.127 z m -25.018,0 h 8.387 v -4.635 c -1,-0.695 -1.776,-1.583 -2.328,-2.662 -0.914,-1.749 -1.53,-3.819 -1.85,-6.21 l -0.318,-2.353 c -0.108,-0.747 -0.336,-1.331 -0.686,-1.756 -0.351,-0.425 -0.791,-0.636 -1.322,-0.636 -0.553,0 -1.006,0.235 -1.356,0.704 -0.351,0.468 -0.527,1.081 -0.527,1.836 z"
           style="fill:#ed1c24;fill-opacity:1;fill-rule:nonzero;stroke:none"
           id="path4116"
           inkscape:connector-curvature="0" /><path
           d="m 495.169,294.511 h -14.158 -0.826 c -0.764,0 -1.352,0.173 -1.766,0.518 -0.412,0.346 -0.619,0.84 -0.619,1.482 0,1.05 0.426,1.741 1.273,2.075 0.698,0.282 1.106,0.454 1.221,0.518 0.117,0.065 0.24,0.211 0.367,0.443 0.254,0.409 0.381,1.063 0.381,1.962 v 38.461 c 0,0.894 -0.127,1.545 -0.381,1.953 -0.127,0.229 -0.25,0.377 -0.367,0.441 -0.115,0.064 -0.523,0.236 -1.221,0.517 -0.847,0.332 -1.273,1.021 -1.273,2.069 0,0.639 0.207,1.13 0.619,1.475 0.414,0.345 1.002,0.517 1.766,0.517 h 0.826 14.158 0.826 c 0.764,0 1.352,-0.172 1.764,-0.517 0.412,-0.345 0.619,-0.836 0.619,-1.475 0,-1.048 -0.424,-1.737 -1.272,-2.069 -0.699,-0.281 -1.105,-0.453 -1.222,-0.517 -0.117,-0.064 -0.238,-0.212 -0.365,-0.441 -0.254,-0.408 -0.381,-1.059 -0.381,-1.953 v -38.461 c 0,-0.899 0.127,-1.553 0.381,-1.962 0.127,-0.232 0.248,-0.378 0.365,-0.443 0.117,-0.064 0.523,-0.236 1.222,-0.518 0.848,-0.334 1.272,-1.025 1.272,-2.075 0,-0.642 -0.207,-1.136 -0.619,-1.482 -0.412,-0.345 -1,-0.518 -1.764,-0.518 z"
           style="fill:#ed1c24;fill-opacity:1;fill-rule:nonzero;stroke:none"
           id="path4118"
           inkscape:connector-curvature="0" /><path
           d="m 526.153,346.942 h 12.815 l 8.834,-45.133 c 0.17,-0.795 0.359,-1.499 0.572,-2.113 0.189,-0.487 0.615,-0.884 1.272,-1.191 0.548,-0.281 0.931,-0.564 1.142,-0.846 0.213,-0.281 0.318,-0.664 0.318,-1.151 0,-1.332 -0.824,-1.997 -2.474,-1.997 h -15.865 c -0.635,0 -1.145,0.185 -1.526,0.558 -0.381,0.371 -0.572,0.866 -0.572,1.482 0,0.512 0.084,0.897 0.254,1.154 0.17,0.257 0.549,0.578 1.142,0.964 0.422,0.255 0.717,0.537 0.887,0.846 0.17,0.307 0.254,0.693 0.254,1.156 0,0.435 -0.031,0.82 -0.094,1.154 l -1.013,5.582 h -8.871 l 0.859,4.58 h 7.123 l -5.852,31.201 z m -2.193,-9.731 1.621,-7.945 -5.65,-24.836 c -0.17,-0.718 -0.254,-1.386 -0.254,-2 0,-1.615 0.631,-2.769 1.898,-3.46 l 1.125,-0.616 c 0.709,-0.384 1.063,-1.025 1.063,-1.921 0,-1.282 -0.782,-1.922 -2.348,-1.922 h -8.074 c -0.785,0 -1.404,0.197 -1.862,0.595 -0.455,0.397 -0.683,0.942 -0.683,1.633 0,0.743 0.467,1.36 1.398,1.846 0.869,0.46 1.51,0.877 1.924,1.248 0.414,0.371 0.811,0.878 1.194,1.52 0.593,1.049 1.08,2.446 1.46,4.189 z"
           style="fill:#ed1c24;fill-opacity:1;fill-rule:nonzero;stroke:none"
           id="path4120"
           inkscape:connector-curvature="0" /><path
           d="m 583.456,294.511 v 4.312 c 1.037,0.232 1.856,0.489 2.459,0.77 0.604,0.282 1.18,0.693 1.731,1.232 0.886,0.848 1.701,2.016 2.441,3.504 0.74,1.488 1.344,3.145 1.81,4.969 0.338,1.412 0.649,2.342 0.936,2.791 0.285,0.449 0.703,0.674 1.254,0.674 0.592,0 1.025,-0.295 1.301,-0.885 0.127,-0.283 0.189,-0.848 0.189,-1.695 v -15.672 z m -2.607,0 h -14.127 -0.826 c -0.764,0 -1.352,0.173 -1.764,0.518 -0.414,0.346 -0.619,0.84 -0.619,1.482 0,1.05 0.424,1.741 1.271,2.075 0.697,0.282 1.106,0.454 1.223,0.518 0.117,0.065 0.238,0.211 0.367,0.443 0.252,0.409 0.381,1.063 0.381,1.962 v 38.461 c 0,0.894 -0.129,1.545 -0.381,1.953 -0.129,0.229 -0.25,0.377 -0.367,0.441 -0.117,0.064 -0.526,0.236 -1.223,0.517 -0.847,0.332 -1.271,1.021 -1.271,2.069 0,0.639 0.205,1.13 0.619,1.475 0.412,0.345 1,0.517 1.764,0.517 h 0.826 14.158 1.084 c 0.932,0 1.599,-0.154 2.004,-0.46 0.551,-0.408 0.828,-0.945 0.828,-1.608 0,-1.125 -0.51,-1.828 -1.527,-2.108 -0.829,-0.23 -1.319,-0.384 -1.465,-0.459 -0.149,-0.078 -0.307,-0.231 -0.477,-0.461 -0.32,-0.46 -0.478,-1.175 -0.478,-2.145 z"
           style="fill:#ed1c24;fill-opacity:1;fill-rule:nonzero;stroke:none"
           id="path4122"
           inkscape:connector-curvature="0" /></g></g></g></svg>