<?xml version="1.0" encoding="iso-8859-1"?>
<!-- Generator: Adobe Illustrator 19.0.0, SVG Export Plug-In . SVG Version: 6.00 Build 0)  -->
<svg version="1.1" id="Layer_1" xmlns="http://www.w3.org/2000/svg" xmlns:xlink="http://www.w3.org/1999/xlink" x="0px" y="0px"
	 viewBox="0 0 473.654 473.654" style="enable-background:new 0 0 473.654 473.654;" xml:space="preserve">
<circle style="fill:#1FA85B;" cx="236.827" cy="236.827" r="236.827"/>
<path style="fill:#CFC7BE;" d="M358.124,173.277c0-68.883-54.729-131.513-122.232-131.513c-67.511,0-122.232,62.63-122.232,131.513
	c0,0,2.206,13.496,15.28,13.208c14.775-0.318,16.353-13.208,16.353-13.208c0-3.68,0.213-7.345,0.621-10.983
	c0.176-1.559-6.813-3.268-6.391-6.57c0.352-2.767,7.595-1.343,7.932-2.954c9.02-42.736,45.189-78.726,88.433-78.726
	c50.032,0,90.591,48.177,90.591,99.23l0.254,37.65l31.824,5.116L358.124,173.277z"/>
<path style="fill:#F4E028;" d="M358.756,367.237c0,14.439-11.955,26.136-26.712,26.136H140.672
	c-14.753,0-26.704-11.697-26.704-26.136V212.602c0-14.435,244.789-14.435,244.789,0V367.237z"/>
<path style="fill:#DAC425;" d="M264.661,275.255c0-15.07-12.213-27.284-27.28-27.284c-15.074,0-27.28,12.213-27.28,27.284
	c0,11.492,7.113,21.304,17.165,25.321v25.164c0,5.336,4.33,9.659,9.663,9.659c5.34,0,9.663-4.323,9.663-9.659v-24.831
	C257.118,297.128,264.661,287.083,264.661,275.255z"/>
<path style="fill:#D0B82B;" d="M209.08,275.255c0-15.07,12.221-27.284,27.288-27.284c0,0-19.019,12.681-19.019,27.751
	c0,15.347,14.352,24.438,14.352,24.438v25.859c0,5.336,5.112,9.379,5.112,9.379c-5.34,0-9.663-4.323-9.663-9.659v-24.831
	C216.626,297.128,209.08,287.083,209.08,275.255z"/>
<polygon style="fill:#F8E349;" points="314.225,393.373 280.124,393.373 280.124,202.401 314.225,204.106 "/>
<path style="fill:#E8E7E7;" d="M280.124,51.146v36.33c14.154,9.125,25.949,22.303,34.101,37.646v-51.55
	C304.125,64.246,292.622,56.606,280.124,51.146z"/>
<g>
</g>
<g>
</g>
<g>
</g>
<g>
</g>
<g>
</g>
<g>
</g>
<g>
</g>
<g>
</g>
<g>
</g>
<g>
</g>
<g>
</g>
<g>
</g>
<g>
</g>
<g>
</g>
<g>
</g>
</svg>
