<?xml version="1.0" encoding="iso-8859-1"?>
<!-- Generator: Adobe Illustrator 19.0.0, SVG Export Plug-In . SVG Version: 6.00 Build 0)  -->
<svg version="1.1" id="Layer_1" xmlns="http://www.w3.org/2000/svg" xmlns:xlink="http://www.w3.org/1999/xlink" x="0px" y="0px"
	 viewBox="0 0 473.654 473.654" style="enable-background:new 0 0 473.654 473.654;" xml:space="preserve">
<circle style="fill:#49A0AE;" cx="236.827" cy="236.827" r="236.827"/>
<g style="opacity:0.15;">
	<path d="M185.247,210.848l-10.467-10.404C178.243,204.82,181.777,208.253,185.247,210.848z"/>
</g>
<g>
	<path style="fill:#D7DFDF;" d="M174.687,148.151l-11.279,8.915c-7.786,6.155-7.042,20.085,5.378,35.788l5.998,7.588
		c12.408,15.702,25.788,19.651,33.581,13.492l11.279-8.915c7.786-6.155,7.034-20.081-5.381-35.788l-5.991-7.584
		C195.86,145.941,182.473,141.995,174.687,148.151z M209.386,171.766c9.757,12.341,10.351,23.286,4.222,28.125l-8.852,7
		c-6.129,4.839-16.637,1.735-26.398-10.602l-4.704-5.961c-9.749-12.344-10.344-23.286-4.222-28.125l8.859-7
		c6.122-4.839,16.63-1.739,26.383,10.602L209.386,171.766z"/>
	<path style="fill:#D7DFDF;" d="M299.719,197.177c-2.117,1.638-5.662,0.617-7.909-2.285l0,0c-2.262-2.902-2.375-6.589-0.262-8.235
		l45.948-35.724c2.117-1.642,5.662-0.625,7.917,2.277l0,0c2.259,2.902,2.375,6.593,0.254,8.235L299.719,197.177z"/>
	<path style="fill:#D7DFDF;" d="M260.383,211.738c2.543,0.826,3.687,4.334,2.558,7.834l0,0c-1.141,3.493-4.128,5.662-6.675,4.835
		l-55.357-17.991c-2.55-0.83-3.695-4.334-2.558-7.834l0,0c1.133-3.497,4.128-5.658,6.668-4.835L260.383,211.738z"/>
</g>
<path style="fill:#CFC7BE;" d="M328.578,271.916c0-52.859-41.992-100.912-93.789-100.912s-93.796,48.054-93.796,100.912h24.277
	c0-39.18,31.128-76.145,69.519-76.145s69.519,36.969,69.519,76.145H328.578z"/>
<path style="fill:#F4E028;" d="M328.63,390.221c0,11.077-9.173,20.052-20.493,20.052H161.284c-11.312,0-20.489-8.975-20.489-20.052
	V271.557c0-11.077,187.835-11.077,187.835,0V390.221z"/>
<path style="fill:#DAC425;" d="M256.423,319.636c0-11.563-9.364-20.934-20.927-20.934s-20.942,9.371-20.942,20.934
	c0,8.818,5.464,16.349,13.175,19.431v19.307c0,4.091,3.324,7.412,7.419,7.412c4.091,0,7.412-3.324,7.412-7.412v-19.053
	C250.637,336.423,256.423,328.712,256.423,319.636z"/>
<path style="fill:#D0B82B;" d="M213.776,319.636c0-11.563,9.371-20.934,20.942-20.934c0,0-14.592,9.73-14.592,21.293
	c0,11.772,11.013,18.754,11.013,18.754v19.842c0,4.099,3.923,7.199,3.923,7.199c-4.099,0-7.412-3.324-7.412-7.412v-19.053
	C219.569,336.423,213.776,328.712,213.776,319.636z"/>
<polygon style="fill:#F8E349;" points="294.462,410.272 268.292,410.272 268.292,263.733 294.462,265.039 "/>
<path style="fill:#E8E7E7;" d="M268.292,178v27.785c10.804,6.847,19.853,16.764,26.17,28.342v-39.142
	C286.698,187.906,277.869,182.125,268.292,178z"/>
<g>
	<path style="fill:#D7DFDF;" d="M179.997,158.827c1.825,1.956,1.126,5.579-1.571,8.085l0,0c-2.681,2.506-6.346,2.954-8.175,0.995
		l-39.673-42.594c-1.825-1.956-1.133-5.579,1.563-8.089l0,0c2.689-2.502,6.346-2.943,8.182-0.987L179.997,158.827z"/>
	<path style="fill:#D7DFDF;" d="M377.914,127.422c2.621,2.573,6.275,3.115,8.145,1.204L423.2,90.778
		c-2.76-3.511-5.602-6.948-8.552-10.299l-38.091,38.817C374.679,121.211,375.285,124.849,377.914,127.422z"/>
	<path style="fill:#D7DFDF;" d="M394.656,122.669l-8.919-11.282c-6.152-7.786-20.078-7.034-35.788,5.378l-7.58,5.995
		c-15.702,12.412-19.663,25.792-13.496,33.581l8.919,11.279c6.152,7.79,20.078,7.038,35.788-5.378l7.58-5.998
		C396.862,143.839,400.815,130.459,394.656,122.669z M371.044,157.372c-12.344,9.749-23.286,10.347-28.122,4.222l-7.004-8.859
		c-4.843-6.125-1.739-16.63,10.605-26.386l5.953-4.708c12.352-9.757,23.286-10.351,28.125-4.226l7.004,8.859
		c4.835,6.122,1.739,16.63-10.605,26.39L371.044,157.372z"/>
	<path style="fill:#D7DFDF;" d="M102.831,84.432c3.197-1.817,4.712-5.183,3.396-7.505L91.04,50.219
		c-3.549,2.782-7.027,5.658-10.415,8.635l14.008,24.655C95.965,85.831,99.63,86.246,102.831,84.432z"/>
	<path style="fill:#D7DFDF;" d="M410.044,85.214l11.51,8.612c1.709,1.283,3.68,2.053,5.815,2.371
		c-6.843-9.267-14.345-18.014-22.445-26.177C404.012,76.721,405.86,82.08,410.044,85.214z"/>
	<path style="fill:#D7DFDF;" d="M100.561,65.884l-11.279,8.915c-7.786,6.155-7.034,20.082,5.381,35.788l5.991,7.584
		c12.408,15.706,25.796,19.655,33.581,13.496l11.279-8.915c7.786-6.155,7.042-20.085-5.378-35.788l-5.998-7.588
		C121.734,63.674,108.35,59.728,100.561,65.884z M135.26,89.495c9.757,12.344,10.351,23.286,4.229,28.125l-8.859,7
		c-6.122,4.839-16.63,1.739-26.39-10.602l-4.712-5.961c-9.749-12.341-10.344-23.286-4.215-28.125l8.852-7
		c6.129-4.839,16.637-1.735,26.39,10.602L135.26,89.495z"/>
	<path style="fill:#D7DFDF;" d="M308.317,188.647l-8.919-11.282c-6.155-7.79-20.085-7.034-35.788,5.378l-7.588,5.995
		c-15.702,12.412-19.655,25.788-13.496,33.578l8.919,11.282c6.155,7.79,20.085,7.034,35.788-5.378l7.588-5.998
		C310.523,209.813,314.468,196.436,308.317,188.647z M284.698,223.35c-12.337,9.749-23.286,10.344-28.122,4.222l-6.997-8.863
		c-4.843-6.122-1.739-16.63,10.598-26.383l5.961-4.712c12.344-9.753,23.286-10.347,28.125-4.226l6.997,8.863
		c4.835,6.118,1.739,16.63-10.598,26.386L284.698,223.35z"/>
</g>
<g>
</g>
<g>
</g>
<g>
</g>
<g>
</g>
<g>
</g>
<g>
</g>
<g>
</g>
<g>
</g>
<g>
</g>
<g>
</g>
<g>
</g>
<g>
</g>
<g>
</g>
<g>
</g>
<g>
</g>
</svg>
