<?xml version="1.0" encoding="iso-8859-1"?>
<!-- Generator: Adobe Illustrator 19.0.0, SVG Export Plug-In . SVG Version: 6.00 Build 0)  -->
<svg version="1.1" id="Layer_1" xmlns="http://www.w3.org/2000/svg" xmlns:xlink="http://www.w3.org/1999/xlink" x="0px" y="0px"
	 viewBox="0 0 512 512" style="enable-background:new 0 0 512 512;" xml:space="preserve">
<circle style="fill:#FFAD9E;" cx="256" cy="256" r="256"/>
<path style="fill:#FF6262;" d="M408.245,179.465L110.761,329.519l180.107,180.107C407.319,493.764,498.866,399.61,510.7,281.924
	L408.245,179.465z"/>
<rect x="233.417" y="325.439" style="fill:#273B7A;" width="24.533" height="122.656"/>
<path style="fill:#B20040;" d="M307.021,329.519h-196.26v-98.13c0-40.646,32.951-73.597,73.597-73.597h171.727"/>
<polygon style="fill:#940030;" points="356.087,157.793 241.635,157.793 241.635,329.519 307.021,329.519 "/>
<path style="fill:#273B7A;" d="M429.684,231.39c0-40.646-32.951-73.597-73.597-73.597s-73.597,32.951-73.597,73.597v98.13h147.196
	v-98.13H429.684z"/>
<path style="fill:#E03A00;" d="M233.424,214.614c-4.284,0-7.758-3.474-7.758-7.758v-90.372h-41.308
	c-4.284,0-7.758-3.474-7.758-7.758s3.474-7.758,7.758-7.758h49.066c4.284,0,7.758,3.474,7.758,7.758v98.13
	C241.181,211.142,237.709,214.614,233.424,214.614z"/>
<rect x="297.029" y="220.47" style="fill:#FFC61B;" width="118.105" height="78.739"/>
<polygon style="fill:#FFEDB5;" points="415.141,220.472 356.087,259.843 297.031,220.472 "/>
<g>
</g>
<g>
</g>
<g>
</g>
<g>
</g>
<g>
</g>
<g>
</g>
<g>
</g>
<g>
</g>
<g>
</g>
<g>
</g>
<g>
</g>
<g>
</g>
<g>
</g>
<g>
</g>
<g>
</g>
</svg>
